<svg width="1620" height="807" viewBox="0 0 1620 807" fill="none" xmlns="http://www.w3.org/2000/svg">
<path fill-rule="evenodd" clip-rule="evenodd" d="M1104.96 98.1216H834.822V304.898C834.74 305.449 834.74 306.009 834.822 306.561C836.453 315.442 840.757 323.613 847.157 329.982C851.647 335.134 857.184 339.269 863.397 342.113C869.611 344.956 876.36 346.443 883.193 346.475H931.288C931.288 346.475 935.308 346.475 940.297 346.475C946.477 346.737 952.474 348.65 957.666 352.013C962.857 355.376 967.054 360.067 969.819 365.6C972.98 359.121 978.046 353.763 984.339 350.246C990.631 346.728 997.849 345.219 1005.02 345.92H1060.46C1070.14 344.95 1079.34 341.203 1086.93 335.13C1094.53 329.056 1100.21 320.916 1103.29 311.689C1104.01 309.468 1104.57 307.199 1104.96 304.898V98.1216Z" fill="#F9B000"/>
<path fill-rule="evenodd" clip-rule="evenodd" d="M491.649 4.98901C496.788 7.80907 501.095 11.9319 504.136 16.9433C507.177 21.9547 508.846 27.6781 508.974 33.5385V304.897C508.891 305.402 508.891 305.917 508.974 306.422C510.954 315.216 515.43 323.252 521.864 329.566C527.072 334.696 533.243 338.745 540.023 341.48C546.802 344.215 554.055 345.583 561.365 345.504H605.995C608.718 345.346 611.449 345.346 614.172 345.504C620.273 345.726 626.201 347.596 631.325 350.914C636.45 354.233 640.58 358.876 643.278 364.353C646.778 357.914 652.11 352.659 658.6 349.254C665.089 345.849 672.444 344.448 679.731 345.227H733.646C743.171 343.698 752.131 339.71 759.642 333.658C767.153 327.606 772.955 319.699 776.474 310.718C777.319 308.931 777.835 307.006 777.999 305.036V36.0331C778.243 33.2293 778.706 30.449 779.385 27.7177C779.848 22.8186 781.607 18.131 784.481 14.1365C787.355 10.1421 791.241 6.98479 795.74 4.98901H721.311V264.984C721.311 264.984 721.311 267.617 720.479 270.804C719.691 275.233 717.613 279.331 714.507 282.585C711.401 285.839 707.403 288.105 703.016 289.098H587.561C585.486 288.479 583.45 287.738 581.462 286.881C577.054 285.152 573.248 282.17 570.514 278.303C567.78 274.437 566.238 269.855 566.078 265.122V4.98901H491.649Z" fill="#005F94"/>
<path fill-rule="evenodd" clip-rule="evenodd" d="M817.361 5.12817C822.488 7.94034 826.794 12.0389 829.857 17.0205C832.919 22.002 834.631 27.695 834.825 33.5391V93.1327H1104.96V36.1723C1105.11 33.3371 1105.43 30.5138 1105.93 27.7183C1106.77 23.0869 1108.58 18.6836 1111.23 14.7926C1113.88 10.9016 1117.31 7.60928 1121.31 5.12817H817.361Z" fill="#005F94"/>
<path fill-rule="evenodd" clip-rule="evenodd" d="M1020.82 304.898C1020.1 306.614 1019.68 308.442 1019.58 310.303H1020.55C1020.55 308.362 1020.69 306.284 1020.82 304.898ZM1031.36 315.708V317.371L1030.11 318.895C1029.24 319.843 1028.16 320.565 1026.95 321C1025.75 321.434 1024.45 321.568 1023.18 321.39C1020.97 320.679 1018.93 319.497 1017.22 317.925L1015.28 316.816C1012.51 318.48 1006.83 316.816 1004.61 315.708L1005.86 314.183C1004.2 313.797 1002.58 313.287 1001 312.659L1002.94 309.748C1003.96 307.578 1005.74 305.853 1007.93 304.898V303.65C1009.09 301.448 1009.69 298.999 1009.69 296.513C1009.69 294.027 1009.09 291.578 1007.93 289.376C1006.85 287.97 1006.05 286.37 1005.58 284.664C1000.13 285.546 994.906 287.475 990.193 290.346C988.28 291.109 986.147 291.109 984.233 290.346C983.893 290.226 983.601 289.999 983.401 289.699C983.201 289.399 983.104 289.043 983.125 288.683C977.861 288.406 972.587 288.406 967.324 288.683C967.324 290.346 967.324 292.979 968.294 295.058C968.406 297.968 968.871 300.853 969.68 303.65L970.373 305.313C970.751 306.066 970.948 306.897 970.948 307.739C970.948 308.581 970.751 309.411 970.373 310.164V310.996C970.373 314.183 967.047 314.876 964.691 314.876C962.721 314.64 960.853 313.874 959.285 312.659V311.55H957.899C957.027 311.112 956.192 310.602 955.404 310.026C955.343 309.334 955.343 308.638 955.404 307.947C955.781 306.688 956.392 305.513 957.206 304.482V298.245V297.275V296.444C955.847 299.241 955.272 302.354 955.543 305.452V306.561C955.813 307.462 955.798 308.425 955.5 309.318C955.203 310.211 954.637 310.991 953.88 311.55L954.573 315.015L952.909 316.539C951.443 317.605 949.718 318.257 947.914 318.427C946.11 318.598 944.293 318.281 942.653 317.509V316.123C942.619 315.894 942.619 315.66 942.653 315.431C941.242 315.224 939.851 314.899 938.495 314.46C938.495 314.46 938.495 312.382 938.495 311.411C939.307 309.535 940.485 307.838 941.96 306.422C941.828 305.178 941.828 303.924 941.96 302.68C943.623 297.968 940.297 298.384 940.713 292.286C937.941 290.207 932.951 288.128 931.426 284.941C930.858 284.051 930.208 283.216 929.486 282.446V281.753C927.961 280.644 927.684 281.753 927.268 278.704V277.18C926.805 275.399 925.953 273.742 924.773 272.329C919.229 268.033 916.457 272.329 911.745 270.666C911.217 270.166 910.575 269.803 909.874 269.61C909.173 269.417 908.435 269.399 907.725 269.557H906.894C903.706 270.805 899.271 271.22 897.469 267.478C895.919 266.891 894.637 265.758 893.865 264.291C893.336 263.342 893.132 262.247 893.282 261.172C893.432 260.096 893.929 259.099 894.697 258.332C896.637 256.391 895.667 252.649 899.409 249.185C903.152 245.72 900.795 245.027 903.29 242.394C900.561 240.897 898.12 238.926 896.083 236.573L898.162 233.94C899.184 234.529 900.249 235.039 901.35 235.464C903.07 236.449 905.068 236.839 907.033 236.573H908.003C908.74 236.227 909.544 236.047 910.359 236.047C911.173 236.047 911.978 236.227 912.715 236.573H913.547C915.21 237.404 916.457 234.91 920.338 236.573H921.308C922.694 236.573 927.545 235.603 931.565 235.603C935.584 235.603 938.911 236.712 943.623 236.989C948.336 237.266 950.415 236.989 954.711 236.989C963.166 236.989 968.571 238.375 976.194 238.236C988.391 238.236 995.044 234.91 1007.24 235.048C1015.56 235.048 1028.86 234.217 1032.74 242.532C1034.06 243.495 1035.1 244.776 1035.78 246.256C1036.46 247.735 1036.75 249.363 1036.62 250.986C1036.97 255.916 1035.6 260.814 1032.74 264.845C1028.45 270.805 1024.15 278.704 1028.03 285.357C1030.31 289.607 1030.85 294.572 1029.56 299.216C1029.37 302.123 1029.37 305.039 1029.56 307.947C1029.49 308.314 1029.49 308.688 1029.56 309.055V310.164C1033.44 313.213 1033.3 314.183 1031.36 315.015V315.708Z" fill="#12100B"/>
<path fill-rule="evenodd" clip-rule="evenodd" d="M1024.85 310.718L1020.83 312.797L1019.44 313.906H1020.83C1021.67 314.056 1022.54 313.982 1023.34 313.689C1024.14 313.397 1024.85 312.898 1025.4 312.243L1024.85 310.718ZM1010.99 307.947H1009.46C1008.58 308.204 1007.8 308.739 1007.24 309.471C1011.4 310.857 1012.1 311.134 1011.13 307.947H1010.99ZM1024.85 263.736C1027.83 261.522 1030.29 258.684 1032.05 255.421C1033.3 250.432 1032.05 244.195 1028.73 242.394C1022.48 240.117 1015.8 239.264 1009.19 239.899C996.988 239.899 990.336 242.948 978.139 242.948C969.823 242.948 965.11 241.701 956.656 241.701C952.359 241.701 949.864 241.701 945.429 241.701C940.994 241.701 938.221 240.315 933.509 240.315C928.797 240.315 924.639 241.285 923.253 241.285C921.867 241.285 920.619 239.76 918.54 241.285C917.867 241.596 917.134 241.757 916.392 241.757C915.65 241.757 914.917 241.596 914.243 241.285H913.412C913.043 241.112 912.641 241.022 912.234 241.022C911.827 241.022 911.424 241.112 911.056 241.285H910.086H908.699L912.164 242.948C908.145 245.443 907.591 245.165 906.205 249.185C904.819 253.204 902.462 253.065 901.492 256.391C901.133 258.443 900.222 260.36 898.859 261.935C897.057 263.598 899.968 265.815 901.908 265.4C902.774 265.318 903.619 265.083 904.403 264.707H905.096C906.159 264.351 907.292 264.254 908.401 264.422C909.509 264.591 910.562 265.021 911.471 265.677C915.491 267.617 918.679 262.073 926.718 268.864C929.462 271.098 931.407 274.162 932.262 277.595V278.843L934.063 280.644C936.835 283.139 935.588 284.525 938.914 286.465L946.538 290.623C945.29 299.077 947.924 295.889 948.062 300.879C948.234 301.748 948.234 302.642 948.062 303.512V304.482C947.753 305.854 947.521 307.242 947.369 308.64C945.906 309.938 944.686 311.487 943.766 313.213C944.65 313.522 945.604 313.569 946.514 313.348C947.424 313.126 948.251 312.646 948.894 311.966L947.924 308.501C949.032 307.669 950.834 306.977 950.418 305.313V304.066C950.571 297.105 952.581 290.311 956.24 284.386C957.405 289.415 959.626 294.139 962.754 298.245V306.006L960.398 304.898L961.784 306.838H960.536C960.293 307.499 960.015 308.146 959.705 308.778C960.433 309.155 961.241 309.351 962.061 309.351C962.881 309.351 963.689 309.155 964.417 308.778V307.115V306.284C964.417 306.284 964.417 306.284 964.417 305.452C964.478 304.899 964.478 304.342 964.417 303.789V302.126C963.573 299.095 963.061 295.982 962.893 292.84C962.893 289.791 961.507 283.416 961.507 283.416L973.565 282.585C977.446 282.585 988.672 282.585 988.672 282.585L985.9 284.386C988.672 283.693 992.83 280.783 996.573 279.536C1000.27 278.355 1004.08 277.565 1007.94 277.18C1007.77 280.547 1008.64 283.885 1010.43 286.742C1012.17 289.857 1013.08 293.363 1013.08 296.929C1013.08 300.494 1012.17 304.001 1010.43 307.115H1012.51C1013.29 302.037 1014.64 297.062 1016.53 292.286C1016.42 289.264 1016.1 286.254 1015.56 283.278L1018.75 282.308C1018.75 282.308 1019.72 284.664 1020.83 287.713C1023.45 294.164 1024.26 301.206 1023.18 308.085L1024.02 309.055H1025.4H1026.09V307.808C1025.33 304.306 1025.05 300.715 1025.26 297.137C1026.47 293.033 1026.07 288.625 1024.15 284.802C1022.77 281.927 1022.16 278.742 1022.38 275.56C1022.6 272.378 1023.64 269.306 1025.4 266.647C1023.37 268.326 1021.01 269.554 1018.47 270.25C1011.16 270.665 1003.99 268.174 998.513 263.321H997.266H996.434C992.969 264.568 991.029 261.935 990.613 258.886C990.197 255.837 990.613 257.223 989.781 256.53L986.316 254.174H991.999C995.084 254.228 998.043 255.411 1000.31 257.5C1000.31 257.5 1011.96 265.954 1018.75 263.598C1023.14 261.592 1026.64 258.04 1028.59 253.619V252.788C1028.59 252.788 1028.59 252.788 1028.59 253.619L1031.36 252.649C1031.48 252.885 1031.55 253.146 1031.55 253.412C1031.55 253.677 1031.48 253.938 1031.36 254.174V255.144C1029.59 258.207 1027.35 260.968 1024.71 263.321L1024.85 263.736ZM1002.12 262.212C1006.69 265.892 1012.48 267.723 1018.33 267.34C1019.81 266.905 1021.21 266.25 1022.49 265.4C1019.88 266.668 1016.99 267.234 1014.1 267.039C1011.2 266.845 1008.41 265.897 1006 264.291L1002.12 262.212ZM996.434 260.826C997.393 260.62 998.385 260.62 999.345 260.826H998.652L996.573 259.44L994.078 257.5V259.163C994.078 260.272 994.078 261.658 995.88 261.242L996.434 260.826Z" fill="#D2091E"/>
<path fill-rule="evenodd" clip-rule="evenodd" d="M973.703 19.5412L979.108 27.4408L994.77 24.5304L993.938 29.1039L997.681 28.4109L994.909 42.8242L1005.3 50.0309L1004.19 50.8625L1007.94 53.3571L994.631 62.504L997.681 78.4418L981.741 75.3929L972.594 88.6975L970.099 84.9556L969.267 86.0643L962.199 75.67L947.646 78.4418L948.477 74.5613L943.765 75.5314L946.675 59.8708L938.914 54.4658L933.231 50.0309L946.814 40.7454L943.765 24.5304L959.981 27.5794L969.267 13.9976L973.287 19.8183L973.703 19.5412Z" fill="#12100B"/>
<path fill-rule="evenodd" clip-rule="evenodd" d="M962.613 29.5199L968.573 43.3789H970.236L975.919 29.5199L969.266 19.8186L962.613 29.5199ZM965.385 45.042L959.564 31.183L947.921 29.1041L950.139 40.6071L963.999 46.5664L965.385 45.042ZM962.89 49.1996L949.03 43.3789L938.635 50.0312L948.337 56.6835L962.197 50.8627C962.197 50.8627 962.89 49.4768 962.89 49.1996ZM963.999 54.0503L950.139 59.7325L947.921 71.374L959.564 69.2952L965.385 55.4362C964.834 55.0733 964.362 54.6018 963.999 54.0503ZM968.434 56.8221L962.613 70.6811L969.266 80.3824L975.919 70.6811L970.513 56.8221H968.434ZM973.562 55.4362L978.968 69.2952L990.61 71.5126L988.393 59.8711L974.533 54.1889C974.256 54.639 973.931 55.0572 973.562 55.4362ZM976.057 50.7241L989.917 56.5449L999.62 49.8926L989.917 43.2403L976.057 48.9225C976.125 49.3355 976.125 49.7567 976.057 50.1698V50.7241ZM974.533 45.8735L988.393 40.0527L990.61 28.5498L978.968 30.6286L973.424 44.4876L974.533 45.8735ZM969.404 45.8735C968.302 45.8735 967.244 46.3115 966.464 47.0913C965.684 47.871 965.246 48.9285 965.246 50.0312C965.246 51.1339 965.684 52.1914 966.464 52.9711C967.244 53.7508 968.302 54.1889 969.404 54.1889C970.507 54.1889 971.565 53.7508 972.345 52.9711C973.124 52.1914 973.562 51.1339 973.562 50.0312C973.562 48.9285 973.124 47.871 972.345 47.0913C971.565 46.3115 970.507 45.8735 969.404 45.8735Z" fill="white"/>
<path fill-rule="evenodd" clip-rule="evenodd" d="M1114.8 311.411C1113.43 321.395 1109.14 330.751 1102.46 338.298C1093.09 348.323 1080.47 354.706 1066.84 356.314H1011.4C1004.83 356.34 998.333 357.659 992.274 360.195C985.477 365.134 980.041 371.714 976.473 379.32C975.087 377.103 973.285 374.47 971.484 371.975L969.959 374.747C966.881 369.675 963.405 364.855 959.564 360.334C952.625 357.676 945.232 356.404 937.804 356.592H893.867C886.283 357.341 878.627 356.413 871.441 353.875C864.256 351.336 857.716 347.248 852.287 341.901C848.835 339.554 845.672 336.81 842.862 333.724C829.002 317.371 829.002 306.977 829.002 304.898V33.9545C828.863 29.3737 827.664 24.8875 825.5 20.8478C823.336 16.808 820.264 13.3248 816.527 10.6714H814.31C806.353 12.9988 799.109 17.2878 793.242 23.1445C790.015 29.3343 788.126 36.1339 787.698 43.1014V312.52C785.988 322.465 781.129 331.598 773.838 338.575C764.907 348.255 752.917 354.567 739.881 356.453H686.381C679.755 356.406 673.177 357.58 666.977 359.918C659.813 364.783 653.92 371.294 649.79 378.905C648.543 376.687 646.88 374.054 645.078 371.421L643.415 374.193C640.623 369.279 637.374 364.639 633.713 360.334C627.168 357.844 620.198 356.667 613.2 356.869H567.461C562.461 356.909 557.476 356.304 552.631 355.067C542.099 352.886 532.452 347.629 524.911 339.961C522.2 338.051 519.692 335.868 517.426 333.447C509.406 326.339 504.441 316.409 503.566 305.729V33.8159C503.397 27.0406 500.975 20.5148 496.683 15.2694C492.391 10.024 486.473 6.35804 479.865 4.85064L481.251 0H1131.29V0.970129L1139.88 9.83988C1132.55 12.9645 1126.01 17.7015 1120.76 23.6989C1117.41 29.886 1115.29 36.6632 1114.52 43.6558V311.411H1114.8ZM1104.96 98.1216H834.823V304.898C834.741 305.449 834.741 306.009 834.823 306.561C836.454 315.442 840.758 323.613 847.158 329.982C851.648 335.134 857.185 339.269 863.399 342.113C869.612 344.956 876.361 346.443 883.195 346.475H931.289C931.289 346.475 935.309 346.475 940.298 346.475C946.479 346.737 952.476 348.65 957.667 352.013C962.858 355.376 967.055 360.067 969.82 365.6C972.981 359.121 978.047 353.763 984.34 350.246C990.632 346.728 997.85 345.219 1005.03 345.92H1060.47C1070.14 344.95 1079.34 341.203 1086.94 335.13C1094.53 329.056 1100.22 320.916 1103.29 311.689C1104.01 309.468 1104.57 307.199 1104.96 304.898V98.1216ZM817.359 5.12782C822.486 7.93999 826.793 12.0385 829.855 17.0201C832.917 22.0017 834.629 27.6946 834.823 33.5387V93.1324H1104.96V36.1719C1105.11 33.3367 1105.43 30.5134 1105.93 27.718C1106.77 23.0865 1108.57 18.6832 1111.22 14.7922C1113.87 10.9012 1117.31 7.60893 1121.31 5.12782H817.359ZM491.646 5.12782C496.766 7.93614 501.059 12.0373 504.099 17.0223C507.139 22.0073 508.819 27.7021 508.971 33.5387V304.898C508.889 305.402 508.889 305.917 508.971 306.422C510.951 315.216 515.427 323.253 521.861 329.567C527.07 334.696 533.241 338.745 540.02 341.48C546.799 344.216 554.053 345.583 561.363 345.504H605.992C608.716 345.346 611.446 345.346 614.17 345.504C620.271 345.727 626.198 347.596 631.323 350.914C636.447 354.233 640.578 358.877 643.276 364.353C646.775 357.914 652.108 352.659 658.597 349.254C665.087 345.849 672.441 344.448 679.728 345.227H733.644C743.168 343.698 752.128 339.71 759.639 333.658C767.15 327.606 772.952 319.699 776.472 310.718C777.316 308.931 777.833 307.006 777.996 305.036V36.0334C778.24 33.2296 778.703 30.4492 779.382 27.718C779.845 22.8188 781.604 18.1312 784.479 14.1368C787.353 10.1423 791.239 6.98501 795.737 4.98923H721.308V264.984C721.308 264.984 721.308 267.617 720.477 270.805C719.688 275.233 717.611 279.331 714.504 282.585C711.398 285.839 707.401 288.105 703.013 289.098H587.558C585.484 288.479 583.448 287.739 581.46 286.881C577.051 285.152 573.245 282.17 570.511 278.304C567.777 274.437 566.235 269.855 566.075 265.122V4.98923L491.646 5.12782Z" fill="#12100B"/>
<path fill-rule="evenodd" clip-rule="evenodd" d="M571.063 264.707C571.204 269.441 573.001 273.975 576.141 277.521C579.282 281.066 583.567 283.398 588.249 284.109H643.69V140.946H571.617L571.063 264.707Z" fill="#F9B000"/>
<path fill-rule="evenodd" clip-rule="evenodd" d="M634.545 198.322C634.942 199.151 635.089 200.079 634.965 200.99C634.842 201.901 634.455 202.756 633.852 203.45L634.545 210.379H630.248H619.853H615.695V208.023H611.537L612.785 201.094C612.274 200.602 611.902 199.984 611.708 199.303C611.513 198.621 611.502 197.901 611.676 197.213C610.515 195.681 609.796 193.859 609.597 191.947C609.574 191.065 609.816 190.196 610.29 189.452C609.32 182.246 607.656 168.11 607.656 168.11L611.676 168.941L614.448 166.862L616.665 167.971L619.022 166.585L621.516 167.832L624.15 166.446L626.645 167.971L629.555 166.308L632.466 168.248L636.624 167.278L635.931 171.851L639.396 171.02L636.07 191.393C636.407 192.398 636.482 193.473 636.288 194.516C636.094 195.559 635.637 196.535 634.961 197.352L634.545 198.322Z" fill="#12100B"/>
<path fill-rule="evenodd" clip-rule="evenodd" d="M614.864 194.026H628.724C629.28 193.393 629.586 192.58 629.586 191.739C629.586 190.897 629.28 190.084 628.724 189.452L631.635 172.405H630.803L628.17 170.604L625.952 171.574L623.457 170.188L621.101 171.435L619.854 169.079L617.498 170.327L615.557 169.357L613.062 171.158H612.092C612.092 175.039 613.478 182.8 614.448 187.789C614.448 189.452 613.617 189.868 613.617 190.977C613.578 191.546 613.671 192.117 613.887 192.646C614.103 193.174 614.437 193.646 614.864 194.026ZM627.615 202.341H616.111V205.39H627.338H628.586L627.615 202.341ZM615.28 197.49C615.28 198.183 615.28 198.599 615.28 199.153H628.308C628.454 198.875 628.53 198.566 628.53 198.253C628.53 197.939 628.454 197.63 628.308 197.352H614.448L615.28 197.49Z" fill="#008251"/>
<path fill-rule="evenodd" clip-rule="evenodd" d="M617.774 253.758C618.255 254.565 618.448 255.511 618.322 256.442C618.196 257.374 617.759 258.235 617.081 258.885L617.774 265.815H613.616H603.082H598.924V263.459H594.766L596.013 256.391C595.503 255.899 595.131 255.281 594.936 254.6C594.742 253.918 594.731 253.197 594.904 252.51V251.817C593.744 250.284 593.025 248.463 592.825 246.551C592.587 245.737 592.587 244.871 592.825 244.056C591.855 236.85 590.053 222.713 590.053 222.713L594.073 223.545L596.983 221.466L599.201 222.575L601.557 221.189L605.993 221.743L608.626 220.357L611.121 221.882L612.923 221.743L615.833 223.684L619.853 221.743V226.317L623.318 225.485L619.853 246.274C620.19 247.279 620.265 248.354 620.071 249.397C619.877 250.44 619.42 251.416 618.744 252.233L617.774 253.758Z" fill="#12100B"/>
<path fill-rule="evenodd" clip-rule="evenodd" d="M598.094 249.462H611.954V248.769C612.51 248.136 612.816 247.323 612.816 246.482C612.816 245.64 612.51 244.827 611.954 244.195L614.865 227.149H614.033L611.4 225.347L609.044 226.317L606.688 224.931L604.331 226.178L601.837 225.07L599.48 226.456L597.401 225.347L594.906 227.149H594.075C594.075 230.891 595.461 238.652 596.292 243.641C596.292 245.304 595.599 245.72 595.599 246.828C595.758 247.443 596.07 248.007 596.506 248.467C596.943 248.928 597.489 249.27 598.094 249.462ZM610.984 257.777H599.48V260.826H610.707H611.954L610.984 257.777ZM598.649 252.926C598.649 253.619 598.649 254.035 598.649 254.589H611.539C611.719 254.35 611.816 254.058 611.816 253.758C611.816 253.458 611.719 253.166 611.539 252.926H597.678H598.649Z" fill="#008251"/>
<path fill-rule="evenodd" clip-rule="evenodd" d="M1020.83 201.649C1020.11 203.368 1019.69 205.195 1019.58 207.054H1020.55C1020.55 205.945 1020.69 203.866 1020.83 201.649ZM1031.36 212.459V214.122L1030.11 215.785C1029.27 216.749 1028.18 217.474 1026.96 217.887C1025.75 218.301 1024.44 218.388 1023.18 218.141C1020.97 217.43 1018.94 216.248 1017.22 214.676L1015.28 213.429C1012.51 215.092 1006.83 213.429 1004.61 212.32L1005.86 210.795C1004.21 210.409 1002.58 209.899 1001.01 209.271L1002.95 206.361C1004.01 204.808 1005.5 203.603 1007.24 202.896V201.51C1008.18 199.286 1008.58 196.872 1008.41 194.465C1008.24 192.057 1007.51 189.723 1006.27 187.651C1005.17 186.314 1004.37 184.754 1003.92 183.077C998.478 183.906 993.252 185.79 988.533 188.621C986.62 189.385 984.487 189.385 982.574 188.621C982.219 188.524 981.912 188.302 981.709 187.997C981.505 187.691 981.418 187.322 981.465 186.958C976.198 186.958 970.931 186.958 965.664 186.958C965.664 188.621 965.664 191.393 966.634 193.333C966.746 196.243 967.212 199.128 968.02 201.926L968.713 203.589C969.091 204.341 969.288 205.172 969.288 206.014C969.288 206.856 969.091 207.687 968.713 208.439V209.41C968.713 212.459 965.387 213.29 963.031 213.151C961.061 212.916 959.193 212.149 957.625 210.934V209.964H956.239C955.367 209.526 954.532 209.016 953.744 208.439C953.7 207.747 953.7 207.053 953.744 206.361C954.121 205.102 954.732 203.927 955.546 202.896V196.659V195.689V194.858C954.187 197.655 953.612 200.768 953.883 203.866V205.113C954.142 205.994 954.122 206.934 953.824 207.803C953.526 208.672 952.965 209.427 952.22 209.964L952.913 213.429L951.25 214.953C949.804 216.062 948.075 216.74 946.261 216.912C944.447 217.083 942.621 216.741 940.993 215.923V214.676C940.933 214.402 940.933 214.118 940.993 213.844C939.582 213.638 938.192 213.313 936.835 212.874C936.835 212.874 936.835 210.795 936.835 209.964C937.644 208.045 938.821 206.303 940.3 204.836C940.168 203.592 940.168 202.338 940.3 201.094C941.963 196.382 938.637 196.798 939.053 190.7C936.281 188.621 931.291 186.542 929.767 183.493C929.233 182.537 928.581 181.653 927.826 180.86C926.301 179.613 926.024 180.028 925.608 177.811V176.564C925.145 174.783 924.293 173.126 923.114 171.713C917.57 167.555 914.798 171.713 910.085 170.05C908.561 168.941 907.175 168.526 906.066 169.08H905.234C902.046 170.327 897.611 170.743 895.809 167.001C894.269 166.471 892.983 165.383 892.206 163.952C891.687 162.977 891.489 161.863 891.638 160.769C891.787 159.675 892.277 158.655 893.037 157.854C894.978 155.914 894.007 152.172 897.75 148.846C901.492 145.52 899.136 144.549 901.63 142.055C899.637 139.62 898.088 136.852 897.057 133.878L899.136 131.245L902.323 132.908C904.081 133.783 906.058 134.121 908.006 133.878H908.976C909.714 133.532 910.518 133.353 911.333 133.353C912.147 133.353 912.951 133.532 913.689 133.878H914.52C916.184 134.848 917.431 132.354 921.312 133.878C921.631 133.955 921.963 133.955 922.282 133.878C923.668 133.878 928.519 132.908 932.539 132.769C936.558 132.631 939.884 133.878 944.597 134.155C949.309 134.432 951.388 134.155 955.685 134.155C964.14 134.155 969.545 135.541 977.168 135.403C989.365 135.403 996.018 132.076 1008.21 132.354C1016.53 132.354 1029.84 131.383 1033.72 139.837C1035.05 140.781 1036.11 142.059 1036.79 143.543C1037.47 145.028 1037.75 146.665 1037.6 148.291C1037.98 153.225 1036.61 158.135 1033.72 162.15C1029.42 168.11 1025.12 176.009 1029 182.662C1031.25 186.921 1031.8 191.875 1030.53 196.521C1030.35 199.428 1030.35 202.344 1030.53 205.252C1030.48 205.574 1030.48 205.9 1030.53 206.222V207.331C1033.44 210.657 1033.3 211.766 1031.36 212.459Z" fill="#12100B"/>
<path fill-rule="evenodd" clip-rule="evenodd" d="M1011.13 205.39H1009.6C1008.77 205.995 1008.17 206.88 1007.94 207.885C1011.4 207.885 1012.1 208.578 1011.13 205.39ZM1024.99 208.3L1020.97 210.241C1020.44 210.585 1019.98 211.005 1019.58 211.488H1020.97C1021.81 211.669 1022.68 211.609 1023.49 211.315C1024.3 211.021 1025.01 210.504 1025.54 209.825L1024.99 208.3ZM1024.99 161.18C1027.96 159.012 1030.42 156.221 1032.19 153.003C1033.44 148.014 1032.19 141.916 1028.87 139.976C1022.62 137.699 1015.94 136.847 1009.32 137.481C997.127 137.481 990.474 140.53 978.277 140.669C969.961 140.669 965.249 139.421 956.794 139.283C952.497 139.283 950.002 139.283 945.567 139.283C941.132 139.283 938.36 138.035 933.648 138.035C928.935 138.035 924.777 138.59 923.391 138.59C922.005 138.59 920.758 137.065 918.679 137.897C918.005 138.208 917.272 138.368 916.53 138.368C915.788 138.368 915.056 138.208 914.382 137.897H913.55C913.179 137.733 912.778 137.648 912.372 137.648C911.967 137.648 911.565 137.733 911.194 137.897H910.224H908.838L912.303 139.421C908.283 142.055 907.729 141.639 906.343 145.796C904.957 149.954 902.601 149.538 901.631 152.865C901.299 154.926 900.386 156.849 898.997 158.408C897.195 159.933 900.106 162.15 902.046 161.873H904.541H905.234C906.298 161.517 907.431 161.42 908.539 161.589C909.648 161.757 910.7 162.187 911.61 162.843C915.629 164.645 918.817 159.101 926.856 165.892C929.633 168.155 931.583 171.274 932.4 174.762V176.009L934.202 177.672C936.974 180.167 935.727 181.553 939.053 183.493C942.379 185.433 946.676 187.651 946.676 187.651C945.429 196.105 948.062 192.917 948.201 197.906C948.373 198.776 948.373 199.67 948.201 200.539V201.51C948.201 202.895 948.201 204.281 947.508 205.667C946.04 207.015 944.821 208.61 943.904 210.379C944.803 210.655 945.761 210.671 946.668 210.425C947.575 210.18 948.395 209.684 949.032 208.993L948.062 205.529C949.171 204.697 950.973 204.004 950.557 202.341V201.094C950.693 194.173 952.705 187.42 956.378 181.553C957.555 186.577 959.775 191.299 962.892 195.412V203.311L961.229 202.48L962.615 204.42H961.368C961.124 205.081 960.847 205.728 960.536 206.36C961.264 206.737 962.072 206.933 962.892 206.933C963.712 206.933 964.52 206.737 965.249 206.36V204.836V203.866C965.249 203.866 965.249 203.866 965.249 203.173C965.327 202.575 965.327 201.969 965.249 201.371V199.708C964.404 196.677 963.893 193.564 963.724 190.422L962.338 180.998L974.396 180.167C978.277 180.167 989.504 180.167 989.504 180.167L986.732 181.968C989.504 181.275 993.662 178.365 997.404 177.118C1001.57 175.954 1005.84 175.211 1010.16 174.9C1009.99 178.312 1010.86 181.694 1012.65 184.602C1014.39 187.716 1015.3 191.222 1015.3 194.788C1015.3 198.353 1014.39 201.86 1012.65 204.974H1014.73C1015.51 199.896 1016.86 194.921 1018.75 190.145C1018.64 187.123 1018.31 184.113 1017.78 181.137L1020.97 180.167C1020.97 180.167 1021.94 182.523 1023.05 185.572C1025.66 192.023 1026.48 199.066 1025.4 205.944L1026.23 206.915H1027.62H1028.31V205.806C1027.55 202.256 1027.27 198.62 1027.48 194.996C1028.67 190.891 1028.27 186.488 1026.37 182.661C1025 179.807 1024.4 176.646 1024.62 173.488C1024.84 170.33 1025.87 167.283 1027.62 164.645C1025.59 166.292 1023.22 167.475 1020.69 168.109C1017.04 168.39 1013.38 167.946 1009.91 166.804C1006.43 165.663 1003.22 163.845 1000.45 161.457H999.206H998.374C994.909 162.566 992.969 159.933 992.553 156.884C992.137 153.835 992.553 155.221 991.721 154.528L986.316 152.449H991.999C995.062 152.607 997.987 153.776 1000.31 155.775C1000.31 155.775 1011.96 164.229 1018.75 161.873C1023.17 159.9 1026.68 156.338 1028.59 151.894V151.063C1028.59 151.063 1028.59 151.063 1028.59 151.894L1031.36 150.924C1031.36 150.924 1031.36 151.756 1031.36 152.587V153.419C1029.56 156.335 1027.31 158.953 1024.71 161.18H1024.99ZM1002.26 159.794C1006.84 163.437 1012.63 165.219 1018.47 164.783C1019.95 164.348 1021.35 163.694 1022.63 162.843C1020.03 164.105 1017.14 164.679 1014.26 164.509C1011.37 164.339 1008.57 163.432 1006.14 161.873L1002.26 159.794ZM996.572 158.27C997.538 158.133 998.518 158.133 999.483 158.27H998.79L996.711 157.022C996.004 156.474 995.206 156.052 994.355 155.775V157.577C994.355 158.547 994.355 160.071 996.157 159.517L996.572 158.27Z" fill="#D2091E"/>
<path fill-rule="evenodd" clip-rule="evenodd" d="M703.012 301.987H705.091L707.447 311.411L709.249 313.49C709.302 313.718 709.302 313.955 709.249 314.183C709.751 314.667 710.173 315.229 710.497 315.846L711.605 317.232C711.882 317.412 712.119 317.648 712.298 317.925C715.763 322.36 714.655 325.686 710.635 329.012C709.804 335.942 706.616 337.743 699.824 336.912C698.022 339.026 695.507 340.406 692.756 340.792C690.088 340.366 687.645 339.047 685.826 337.051C681.668 337.882 678.064 338.021 676.124 334.14C673.213 333.309 671.688 330.675 671.134 326.241L670.164 325.548C665.451 322.221 666.837 316.955 670.164 313.352L674.599 308.362L677.232 298.107H683.885C684.535 297.369 685.335 296.779 686.231 296.374C687.128 295.97 688.099 295.761 689.083 295.761C690.066 295.761 691.038 295.97 691.934 296.374C692.83 296.779 693.63 297.369 694.28 298.107H701.488L703.012 301.987Z" fill="#12100B"/>
<path fill-rule="evenodd" clip-rule="evenodd" d="M692.76 300.463L691.512 299.493C691.096 299.235 690.616 299.099 690.126 299.099C689.637 299.099 689.157 299.235 688.74 299.493L685.691 301.572C684.859 302.265 684.859 303.512 684.166 304.066C683.473 304.621 681.117 304.066 681.672 301.71H680.424L678.206 310.441L673.217 315.985C670.999 318.341 669.475 321.251 673.217 323.33L677.929 316.401L680.701 318.202L675.434 326.102C675.434 331.23 677.375 332.2 682.365 331.091L684.305 319.311H687.631L685.691 331.507C686.15 332.378 686.838 333.106 687.68 333.615C688.523 334.123 689.489 334.392 690.473 334.392C691.457 334.392 692.422 334.123 693.265 333.615C694.108 333.106 694.796 332.378 695.254 331.507L692.621 319.034L695.947 318.341L698.442 330.537C703.293 330.537 704.679 330.537 705.372 325.271L699.69 317.648L702.323 315.708L707.313 322.36C709.808 320.004 709.669 318.202 707.313 315.569L702.184 309.887L700.106 301.156H698.581L695.67 302.819C695.372 301.994 694.843 301.273 694.146 300.74L692.76 300.463Z" fill="white"/>
<path fill-rule="evenodd" clip-rule="evenodd" d="M601.14 198.322C601.713 199.054 602.025 199.957 602.025 200.886C602.025 201.816 601.713 202.718 601.14 203.45V210.379H596.982H586.448H582.29V208.023L578.271 207.885L579.38 200.955C578.915 200.436 578.584 199.811 578.415 199.135C578.246 198.459 578.244 197.752 578.409 197.075C577.193 195.574 576.467 193.735 576.33 191.808C576.092 190.994 576.092 190.128 576.33 189.314C575.222 182.107 573.558 167.971 573.558 167.971L577.578 168.802L580.488 166.724L582.706 167.832L585.062 166.446L587.557 167.694L590.052 166.308L592.685 167.832L595.042 166.862L597.952 168.802L602.249 167.832L601.417 172.406L605.991 170.466L602.526 190.838C602.863 191.844 602.938 192.919 602.744 193.962C602.55 195.004 602.094 195.981 601.417 196.798L601.14 198.322Z" fill="#12100B"/>
<path fill-rule="evenodd" clip-rule="evenodd" d="M581.461 194.026H595.321C595.85 193.381 596.14 192.573 596.14 191.739C596.14 190.905 595.85 190.097 595.321 189.452L598.232 172.406H597.4L594.767 170.604L592.41 171.574L590.054 170.188L587.559 171.436L585.203 170.327L582.847 171.574L580.768 170.604L578.273 172.406H577.303C577.303 176.286 578.827 184.047 579.659 189.036C579.659 190.7 578.827 191.115 578.827 192.224C579.106 192.7 579.487 193.108 579.942 193.42C580.398 193.731 580.916 193.938 581.461 194.026ZM594.351 202.341H582.847V205.39H593.935H595.182L594.351 202.341ZM582.015 197.49C582.015 198.183 582.015 198.599 582.015 199.154H594.905C595.051 198.876 595.127 198.566 595.127 198.253C595.127 197.939 595.051 197.63 594.905 197.352H581.045L582.015 197.49Z" fill="#008251"/>
<path fill-rule="evenodd" clip-rule="evenodd" d="M610.43 301.987H612.509L614.727 311.411L616.667 313.49C616.72 313.718 616.72 313.955 616.667 314.183C617.127 314.704 617.544 315.26 617.915 315.846L619.023 317.232C619.301 317.372 619.529 317.592 619.678 317.865C619.826 318.137 619.888 318.448 619.855 318.757C623.459 323.192 622.35 326.518 618.192 329.844C618.192 336.773 614.311 338.575 607.52 337.744C605.717 339.858 603.202 341.238 600.451 341.624C597.773 341.231 595.319 339.906 593.521 337.882C589.224 338.714 585.759 338.852 583.819 334.972C580.908 334.14 579.384 331.507 578.829 327.072L578.275 325.686C573.562 322.36 574.948 317.094 578.275 313.49L582.71 308.501L585.343 298.245H591.996C592.647 297.508 593.446 296.918 594.343 296.513C595.239 296.109 596.211 295.899 597.194 295.899C598.177 295.899 599.149 296.109 600.045 296.513C600.941 296.918 601.741 297.508 602.391 298.245H609.599L610.43 301.987Z" fill="#12100B"/>
<path fill-rule="evenodd" clip-rule="evenodd" d="M600.312 300.463L599.064 299.493C598.648 299.235 598.168 299.099 597.678 299.099C597.189 299.099 596.709 299.235 596.292 299.493L593.243 301.572C592.411 302.265 592.273 303.512 591.718 304.066C591.164 304.621 588.669 304.066 589.224 301.71H587.976L585.759 310.441L580.769 315.985C578.551 318.341 577.027 321.251 580.769 323.33L585.481 316.401L588.253 318.202L582.986 326.102C582.986 331.23 584.788 332.2 589.917 331.091L591.857 319.311H595.183L593.243 331.507C594.512 332.965 596.21 333.984 598.094 334.417C599.619 334.417 601.698 332.616 602.806 331.646L600.173 319.173L603.499 318.48L605.994 330.676C610.845 330.676 612.231 330.676 612.924 325.409L607.242 317.787L609.875 315.846L614.865 322.499C617.36 320.143 617.221 318.341 614.865 315.708L609.737 310.026L607.657 301.295H605.994L603.084 302.958C602.785 302.133 602.256 301.411 601.559 300.879L600.312 300.463Z" fill="white"/>
<path fill-rule="evenodd" clip-rule="evenodd" d="M763.303 252.926H765.382L767.739 262.35L769.54 264.429V265.122C770.078 265.629 770.503 266.242 770.788 266.924L771.897 268.171L772.59 268.864C776.055 273.438 774.946 276.625 770.927 279.951C770.095 286.881 766.907 288.682 760.116 287.99C759.336 289.105 758.299 290.015 757.093 290.644C755.886 291.273 754.546 291.601 753.186 291.601C751.825 291.601 750.485 291.273 749.278 290.644C748.072 290.015 747.035 289.105 746.255 287.99C742.097 288.96 738.494 288.96 736.553 285.079C733.643 284.248 732.118 281.753 731.564 277.18H730.732C726.02 273.853 727.406 268.726 730.732 264.984L735.306 259.994L737.801 249.739L744.592 249.462C745.243 248.724 746.042 248.134 746.939 247.729C747.835 247.325 748.807 247.115 749.79 247.115C750.773 247.115 751.745 247.325 752.641 247.729C753.537 248.134 754.337 248.724 754.987 249.462H762.195L763.303 252.926Z" fill="#12100B"/>
<path fill-rule="evenodd" clip-rule="evenodd" d="M753.327 251.402L751.941 250.57C751.536 250.352 751.084 250.238 750.624 250.238C750.165 250.238 749.712 250.352 749.307 250.57L746.12 252.649C745.288 253.481 745.288 254.59 744.595 255.144C743.902 255.698 741.546 255.144 742.1 252.926H740.853L738.635 261.658L733.646 267.201C731.428 269.557 729.903 272.468 733.646 274.546L738.358 267.617L741.13 269.557L735.863 277.318C735.863 282.585 737.804 283.416 742.932 282.308L744.734 270.527H748.06L746.12 282.723C747.402 284.138 749.101 285.109 750.971 285.495C752.787 285.073 754.432 284.106 755.683 282.723L753.05 270.25L756.376 269.557L758.871 281.753C763.722 281.753 765.108 281.753 765.801 276.487L760.118 269.003L762.752 266.924L767.741 273.576C770.236 271.22 770.236 269.419 767.741 266.785L762.613 261.103L760.534 252.372H758.455L755.545 254.035C755.211 253.229 754.688 252.516 754.02 251.956L753.327 251.402Z" fill="white"/>
<path fill-rule="evenodd" clip-rule="evenodd" d="M1060.47 19.5412L1065.87 27.4408L1081.54 24.5304L1080.7 29.1039L1084.45 28.4109L1081.67 42.8242L1092.07 50.0309L1090.96 50.8625L1094.7 53.3571L1081.4 62.504L1084.45 78.4418L1068.51 75.3929L1059.5 88.6975L1056.86 84.9556L1056.03 86.0643L1048.96 75.67L1034.41 78.4418L1035.24 74.5613L1030.53 75.5314L1033.44 59.8708L1025.68 54.4658L1020 50.0309L1033.58 40.7454L1030.53 24.5304L1046.75 27.5794L1056.03 13.9976L1060.05 19.8183L1060.47 19.5412Z" fill="#12100B"/>
<path fill-rule="evenodd" clip-rule="evenodd" d="M1049.52 29.5199L1055.48 43.3789H1057.14L1062.82 29.5199L1056.17 19.8186L1049.52 29.5199ZM1052.29 45.042L1046.47 31.183L1034.83 29.1041L1037.04 40.6071L1050.9 46.5664C1051.26 46.0107 1051.68 45.4989 1052.15 45.042H1052.29ZM1049.79 49.1996L1035.93 43.3789L1026.23 50.0312L1036.07 56.6835L1049.93 50.8627C1049.93 50.8627 1049.52 49.4768 1049.52 49.1996H1049.79ZM1050.9 54.0503L1037.04 59.7325L1034.83 71.374L1046.33 69.2952L1052.15 55.4362C1051.6 55.0733 1051.13 54.6018 1050.76 54.0503H1050.9ZM1055.34 56.8221L1049.52 70.6811L1056.17 80.3824L1062.82 70.6811L1057.42 56.8221H1055.34ZM1060.33 55.4362L1065.87 69.2952L1077.38 71.5126L1075.16 59.8711L1061.3 54.1889C1061.02 54.639 1060.7 55.0572 1060.33 55.4362ZM1063.38 50.8627L1077.24 56.6835L1086.94 50.0312L1077.24 43.3789L1063.38 49.0611C1063.44 49.4741 1063.44 49.8953 1063.38 50.3084V50.8627ZM1061.85 46.0121L1075.71 40.1913L1077.24 28.6884L1065.73 30.7672L1060.05 44.6262L1061.85 46.0121ZM1056.72 46.0121C1055.62 46.0121 1054.56 46.4501 1053.78 47.2298C1053 48.0096 1052.57 49.0671 1052.57 50.1698C1052.57 51.2725 1053 52.33 1053.78 53.1097C1054.56 53.8894 1055.62 54.3275 1056.72 54.3275C1057.83 54.3275 1058.88 53.8894 1059.66 53.1097C1060.44 52.33 1060.88 51.2725 1060.88 50.1698C1060.88 49.0671 1060.44 48.0096 1059.66 47.2298C1058.88 46.4501 1057.83 46.0121 1056.72 46.0121Z" fill="white"/>
<path fill-rule="evenodd" clip-rule="evenodd" d="M763.303 180.167H765.382L767.739 189.591L769.54 191.67V192.363C770.078 192.869 770.503 193.483 770.788 194.164L771.897 195.412L772.59 196.105C776.055 200.678 774.946 203.866 770.927 207.192C770.095 214.121 766.907 215.923 760.116 215.23C758.275 217.296 755.779 218.666 753.047 219.111C750.386 218.579 747.961 217.221 746.117 215.23C741.959 216.2 738.355 216.2 736.415 212.32C733.504 211.488 731.98 208.993 731.425 204.42L730.732 203.727C726.02 200.401 727.406 195.273 730.732 191.531L735.306 186.542L737.801 176.286H744.454C745.104 175.549 745.904 174.958 746.8 174.554C747.696 174.149 748.668 173.94 749.651 173.94C750.634 173.94 751.606 174.149 752.503 174.554C753.399 174.958 754.198 175.549 754.849 176.286H762.056L763.303 180.167Z" fill="#12100B"/>
<path fill-rule="evenodd" clip-rule="evenodd" d="M753.327 178.504L751.941 177.672C751.536 177.454 751.084 177.34 750.624 177.34C750.165 177.34 749.712 177.454 749.307 177.672L746.12 179.751C745.288 180.583 745.288 181.691 744.595 182.384C743.902 183.077 741.546 182.384 742.1 180.028H740.853L738.635 188.759L733.646 194.303C731.428 196.659 729.903 199.569 733.646 201.648L738.358 194.719L741.13 196.659L735.863 204.42C735.863 209.687 737.804 210.518 742.932 209.409L744.734 197.629H748.06L746.12 209.825C747.402 211.24 749.101 212.21 750.971 212.597C752.495 212.597 754.713 210.795 755.683 209.825L753.05 197.352L756.376 196.659L758.871 208.855C763.722 208.855 765.108 208.855 765.801 203.589L760.118 196.105L762.752 194.026L767.741 200.678C770.236 198.461 770.236 196.52 767.741 193.887L762.613 188.205L759.841 180.167H758.455L755.545 181.83C755.211 181.024 754.688 180.311 754.02 179.751L753.327 178.504Z" fill="white"/>
<path fill-rule="evenodd" clip-rule="evenodd" d="M763.303 107.13H765.382L767.739 116.554L769.54 118.633C770.047 119.165 770.468 119.773 770.788 120.434L771.897 121.682L772.59 122.375C776.055 126.948 774.946 130.136 770.927 133.6C770.095 140.391 766.907 142.193 760.116 141.5C759.357 142.644 758.327 143.582 757.118 144.23C755.909 144.879 754.558 145.219 753.186 145.219C751.813 145.219 750.462 144.879 749.253 144.23C748.044 143.582 747.014 142.644 746.255 141.5C742.097 142.47 738.494 142.47 736.553 138.59C733.643 137.758 732.118 135.263 731.564 130.69L730.732 130.829C726.02 127.502 727.406 122.375 730.732 118.633L735.306 113.643L737.801 103.388H744.454C745.104 102.65 745.904 102.06 746.8 101.655C747.696 101.251 748.668 101.042 749.651 101.042C750.634 101.042 751.606 101.251 752.503 101.655C753.399 102.06 754.198 102.65 754.849 103.388H762.056L763.303 107.13Z" fill="#12100B"/>
<path fill-rule="evenodd" clip-rule="evenodd" d="M753.327 105.605L751.941 104.774C751.536 104.555 751.084 104.441 750.624 104.441C750.165 104.441 749.712 104.555 749.307 104.774L746.12 106.853C745.288 107.684 745.288 108.793 744.595 109.486C743.902 110.179 741.546 109.486 742.1 107.13H740.853L738.635 115.861L733.646 121.405C731.428 123.761 729.903 126.671 733.646 128.888L738.358 121.82L741.13 123.761L735.863 131.522C735.863 136.788 737.804 137.62 742.932 136.511L744.595 124.731H747.922L745.981 136.927C747.263 138.341 748.962 139.312 750.832 139.698C752.357 139.698 754.574 137.897 755.545 136.927L752.495 124.731L755.822 124.038L758.317 136.234C763.168 136.234 764.554 136.234 765.247 130.967L759.564 123.483L762.197 121.405L767.187 128.057C769.682 125.839 769.682 123.899 767.187 121.266L762.059 115.584L759.98 106.853H758.455L755.545 108.516C755.288 107.669 754.75 106.936 754.02 106.437L753.327 105.605Z" fill="white"/>
<path fill-rule="evenodd" clip-rule="evenodd" d="M763.303 34.2315H765.382L767.739 43.6556L769.54 45.7344C770.017 46.2906 770.435 46.8943 770.788 47.5361L771.897 48.7834H772.59C776.055 53.3569 774.946 56.5444 770.927 60.0092C770.095 66.8001 766.907 68.6017 760.116 67.9088C758.275 69.9751 755.779 71.3453 753.047 71.7893C750.345 71.3713 747.885 69.9936 746.117 67.9088C741.959 68.8789 738.355 68.8789 736.415 64.9984C733.504 64.1669 731.98 61.6723 731.425 57.0988L730.732 57.9303C726.02 54.6042 727.406 49.4763 730.732 45.7344L735.722 41.5767L738.217 31.1825H744.869C745.52 30.4451 746.32 29.8546 747.216 29.4501C748.112 29.0456 749.084 28.8364 750.067 28.8364C751.05 28.8364 752.022 29.0456 752.918 29.4501C753.814 29.8546 754.614 30.4451 755.265 31.1825H762.472L763.303 34.2315Z" fill="#12100B"/>
<path fill-rule="evenodd" clip-rule="evenodd" d="M753.327 32.7072L751.941 31.8756C751.536 31.6573 751.084 31.543 750.624 31.543C750.165 31.543 749.712 31.6573 749.307 31.8756L746.12 33.9545C745.288 34.786 745.288 35.8947 744.595 36.5877C743.902 37.2806 741.546 36.5877 742.1 34.2317H740.853L738.635 42.9628L733.646 48.5064C731.428 50.8624 729.903 53.7728 733.646 55.9903L738.358 48.9222L741.13 50.8624L735.863 58.6235C735.863 63.8899 737.804 64.7214 742.932 63.6127L744.595 51.2782H747.922L745.981 63.4741C747.25 64.9324 748.948 65.9513 750.832 66.3845C752.357 66.3845 754.574 64.4442 755.545 63.4741L752.911 51.001L756.238 50.3081L758.732 62.504C763.583 62.504 764.969 62.504 765.662 57.3762L759.98 49.7537L762.613 47.6749L767.603 54.3272C770.098 52.1097 770.098 50.1695 767.603 47.5363L762.475 41.8541L760.396 33.1229H758.455L755.545 34.786C755.288 33.9396 754.75 33.2061 754.02 32.7072H753.327Z" fill="white"/>
<path fill-rule="evenodd" clip-rule="evenodd" d="M886.936 19.5412L892.341 27.4408L908.003 24.5304L907.171 29.1039L910.914 28.4109L908.142 42.8242L918.537 50.0309L917.428 50.8625L921.17 53.3571L907.864 62.504L910.914 78.4418L894.974 75.3929L885.827 88.6975L883.193 84.9556L882.5 86.0643L875.432 75.67L860.879 78.4418L861.71 74.5613L856.998 75.5314L859.908 59.8708L852.147 54.4658L846.464 50.0309L860.047 40.7454L856.998 24.5304L873.214 27.5794L882.5 13.9976L886.52 19.8183L886.936 19.5412Z" fill="#12100B"/>
<path fill-rule="evenodd" clip-rule="evenodd" d="M875.851 29.5199L881.81 43.3789H883.196L888.879 29.5199L883.196 19.8186L875.851 29.5199ZM878.623 45.042L872.801 31.183L861.159 29.1041L863.376 40.6071L877.237 46.5664C877.563 45.9501 878.04 45.4258 878.623 45.042ZM876.128 49.1996L862.268 43.3789L852.427 50.0312L862.268 56.6835L876.128 50.8627C876.128 50.8627 876.128 49.4768 876.128 49.1996ZM877.237 54.0503L863.376 59.7325L861.159 71.374L872.801 69.2952L878.623 55.4362C878.071 55.0733 877.599 54.6018 877.237 54.0503ZM881.672 56.8221L875.851 70.6811L882.503 80.3824L889.156 70.6811L883.196 56.8221H881.117H881.672ZM886.8 55.4362L892.206 69.2952L903.848 71.5126L901.63 59.8711L887.77 54.1889C887.494 54.639 887.168 55.0572 886.8 55.4362ZM889.295 50.7241L903.155 56.5449L912.857 49.8926L903.155 43.2403L889.295 48.9225C889.362 49.3355 889.362 49.7567 889.295 50.1698V50.7241ZM887.77 45.8735L901.63 40.0527L903.848 28.5498L892.206 30.6286L886.661 44.4876L887.77 45.8735ZM882.642 45.8735C881.539 45.8735 880.482 46.3115 879.702 47.0913C878.922 47.871 878.484 48.9285 878.484 50.0312C878.484 51.1339 878.922 52.1914 879.702 52.9711C880.482 53.7508 881.539 54.1889 882.642 54.1889C883.745 54.1889 884.802 53.7508 885.582 52.9711C886.362 52.1914 886.8 51.1339 886.8 50.0312C886.8 48.9285 886.362 47.871 885.582 47.0913C884.802 46.3115 883.745 45.8735 882.642 45.8735Z" fill="white"/>
<path fill-rule="evenodd" clip-rule="evenodd" d="M550.55 252.926H552.629L554.846 262.351L556.787 264.429V265.122C557.28 265.665 557.7 266.271 558.034 266.924L559.143 268.171V268.864C562.747 273.438 561.638 276.625 557.48 279.951C557.48 286.881 553.599 288.683 546.807 287.99C544.96 290.023 542.459 291.347 539.739 291.732C537.06 291.338 534.606 290.013 532.809 287.99C528.512 288.96 525.047 288.96 523.107 285.079C520.196 284.248 518.671 281.753 518.117 277.18H517.701C512.989 273.854 514.375 268.726 517.701 264.984L522.136 259.995L524.631 249.739H531.423C532.073 249.002 532.873 248.411 533.769 248.007C534.665 247.602 535.637 247.393 536.62 247.393C537.603 247.393 538.575 247.602 539.472 248.007C540.368 248.411 541.167 249.002 541.818 249.739H549.025L550.55 252.926Z" fill="#12100B"/>
<path fill-rule="evenodd" clip-rule="evenodd" d="M539.882 251.402C539.535 251.033 539.108 250.749 538.634 250.57C538.205 250.351 537.73 250.237 537.248 250.237C536.766 250.237 536.291 250.351 535.862 250.57L532.813 252.649C531.981 253.481 531.843 254.589 531.288 255.144C530.734 255.698 528.239 255.144 528.794 252.926H527.546L525.329 261.657L520.339 267.201C518.121 269.557 516.597 272.467 520.339 274.546L525.051 267.617L527.823 269.557L522.418 277.318C522.418 282.584 524.358 283.416 529.487 282.307L531.427 270.527H534.753L532.813 282.723C534.065 284.106 535.709 285.073 537.525 285.495C539.382 285.074 541.071 284.109 542.376 282.723L539.743 270.25L543.069 269.557L545.564 281.753C550.415 281.753 551.801 281.753 552.494 276.487L546.812 269.003L549.445 266.924L554.435 273.576C556.93 271.22 556.791 269.418 554.435 266.785L549.307 261.103L547.089 252.372H545.703L542.792 254.035C542.459 253.229 541.936 252.516 541.268 251.956L539.882 251.402Z" fill="white"/>
<path fill-rule="evenodd" clip-rule="evenodd" d="M550.551 180.167H552.63L554.848 189.591L556.788 191.67V192.363C557.282 192.906 557.701 193.511 558.036 194.164L559.145 195.412V196.105C562.748 200.678 561.639 203.866 557.481 207.192C557.481 214.121 553.601 215.923 546.809 215.23C544.968 217.296 542.472 218.666 539.741 219.111C537.069 218.607 534.636 217.244 532.81 215.23C528.514 216.2 525.049 216.2 523.108 212.32C520.198 211.488 518.673 208.993 518.119 204.42L517.148 203.727C512.436 200.401 513.822 195.273 517.148 191.531L521.584 186.542L524.079 176.286H530.87C531.52 175.549 532.32 174.958 533.216 174.554C534.112 174.149 535.084 173.94 536.068 173.94C537.051 173.94 538.023 174.149 538.919 174.554C539.815 174.958 540.615 175.549 541.265 176.286H548.472L550.551 180.167Z" fill="#12100B"/>
<path fill-rule="evenodd" clip-rule="evenodd" d="M539.882 178.504C539.535 178.135 539.108 177.851 538.634 177.672C538.205 177.453 537.73 177.339 537.248 177.339C536.766 177.339 536.291 177.453 535.862 177.672L532.813 179.751C531.981 180.582 531.843 181.691 531.288 182.384C530.734 183.077 528.239 182.384 528.794 180.028H527.546L525.329 188.759L520.339 194.303C518.121 196.659 516.597 199.569 520.339 201.648L525.051 194.719L527.823 196.659L522.418 204.42C522.418 209.686 524.358 210.518 529.487 209.409L531.427 197.629H534.753L532.813 209.825C534.065 211.208 535.709 212.175 537.525 212.597C539.189 212.597 541.268 210.795 542.376 209.825L539.743 197.352L543.069 196.659L545.564 208.855C550.415 208.855 551.801 208.855 552.494 203.588L546.812 196.104L549.445 194.026L554.435 200.678C556.93 198.461 556.791 196.52 554.435 193.887L549.307 188.205L546.396 180.167H545.01L542.099 181.83C541.766 181.024 541.243 180.311 540.575 179.751L539.882 178.504Z" fill="white"/>
<path fill-rule="evenodd" clip-rule="evenodd" d="M550.551 107.13H552.63L554.848 116.554L556.788 118.633C557.251 119.199 557.668 119.802 558.036 120.434L559.145 121.682V122.375C562.748 126.948 561.639 130.136 557.481 133.6C557.481 140.391 553.601 142.193 546.809 141.5C544.968 143.566 542.472 144.936 539.741 145.381C537.047 144.939 534.594 143.566 532.81 141.5C528.514 142.47 525.049 142.47 523.108 138.59C520.198 137.758 518.673 135.263 518.119 130.69L517.148 129.997C512.436 126.671 513.822 121.543 517.148 117.801L522.831 113.643L525.326 103.388H532.117C532.768 102.65 533.568 102.06 534.464 101.655C535.36 101.251 536.332 101.042 537.315 101.042C538.298 101.042 539.27 101.251 540.166 101.655C541.062 102.06 541.862 102.65 542.512 103.388H549.72L550.551 107.13Z" fill="#12100B"/>
<path fill-rule="evenodd" clip-rule="evenodd" d="M539.882 105.605C539.499 105.281 539.081 105.002 538.634 104.774C538.205 104.555 537.73 104.441 537.248 104.441C536.766 104.441 536.291 104.555 535.862 104.774L532.813 106.853C531.981 107.684 531.843 108.793 531.288 109.486C530.734 110.179 528.239 109.486 528.794 107.13H527.546L525.329 115.861L520.339 121.405C518.121 123.761 516.597 126.671 520.339 128.888L525.051 121.82L527.823 123.761L522.418 131.522C522.418 136.788 524.358 137.62 529.487 136.511L530.873 124.731H534.199L532.259 136.927C533.51 138.309 535.154 139.277 536.971 139.698C538.634 139.698 540.713 137.897 541.822 136.927L539.189 124.731L542.515 124.038L545.01 136.234C549.861 136.234 551.247 136.234 551.94 130.967L546.257 123.483L548.891 121.405L553.88 128.057C556.375 125.84 556.237 123.899 553.88 121.266L548.752 115.584L546.535 106.853H545.149L542.238 108.516C541.981 107.669 541.444 106.936 540.713 106.437L539.882 105.605Z" fill="white"/>
<path fill-rule="evenodd" clip-rule="evenodd" d="M550.551 34.2315H552.63L554.848 43.6556L556.788 45.7344L558.036 47.5361L559.145 48.7834C562.748 53.3569 561.639 56.5444 557.481 60.0092C557.481 66.8001 553.601 68.6017 546.809 67.9088C544.968 69.9751 542.472 71.3453 539.741 71.7893C537.026 71.4087 534.553 70.024 532.81 67.9088C528.514 68.8789 525.049 68.8789 523.108 64.9984C520.198 64.1669 518.673 61.6723 518.119 57.0988L517.148 56.4058C512.436 53.0797 513.822 47.9519 517.148 44.2099L522.831 41.5767L525.326 31.1825H532.117C532.768 30.4451 533.568 29.8546 534.464 29.4501C535.36 29.0456 536.332 28.8364 537.315 28.8364C538.298 28.8364 539.27 29.0456 540.166 29.4501C541.062 29.8546 541.862 30.4451 542.512 31.1825H549.72L550.551 34.2315Z" fill="#12100B"/>
<path fill-rule="evenodd" clip-rule="evenodd" d="M539.882 32.7072C539.499 32.3829 539.081 32.1039 538.634 31.8757C538.205 31.6567 537.73 31.5425 537.248 31.5425C536.766 31.5425 536.291 31.6567 535.862 31.8757L532.813 33.9545C531.981 34.786 531.843 35.8948 531.288 36.5877C530.734 37.2807 528.239 36.5877 528.794 34.2317H527.546L525.329 42.9628L520.339 48.5064C518.121 50.8625 516.597 53.7729 520.339 55.9903L525.051 48.9222L527.823 50.8625L522.418 58.6235C522.418 63.8899 524.358 64.7215 529.487 63.6127L531.427 51.8326H534.753L532.813 64.0285C533.783 64.9986 536.001 66.9389 537.525 66.9389C539.05 66.9389 541.268 64.9986 542.376 64.0285L539.743 51.5554L543.069 50.8625L545.564 63.0584C550.415 63.0584 551.801 63.0584 552.494 57.9305L546.812 50.3081L549.445 48.2293L554.435 54.8816C556.93 52.6641 556.791 50.7239 554.435 48.0907L549.307 42.4085L547.089 33.6773H545.703L542.792 35.3404C542.536 34.494 541.998 33.7605 541.268 33.2616L539.882 32.7072Z" fill="white"/>
<path fill-rule="evenodd" clip-rule="evenodd" d="M716.317 4.98901H690.953L643.69 52.3867L596.427 4.98901H571.063V30.351L611.257 70.6806L571.063 110.733V135.956H596.15L643.69 88.6973L691.092 135.956H716.317V110.872L675.984 70.6806L716.317 30.351V4.98901Z" fill="#D2091E"/>
<path fill-rule="evenodd" clip-rule="evenodd" d="M648.265 284.109H701.488C705.978 283.364 710.034 280.984 712.875 277.427C715.715 273.871 717.139 269.389 716.872 264.845V140.946H648.265V284.109Z" fill="#F9B000"/>
<path fill-rule="evenodd" clip-rule="evenodd" d="M664.899 207.885C664.142 207.732 663.433 207.4 662.831 206.918C662.228 206.436 661.749 205.817 661.434 205.113C657.137 203.45 655.89 199.292 658.523 194.303C651.732 189.73 651.177 185.017 657.414 179.474C656.251 178.233 655.434 176.708 655.046 175.051C654.659 173.395 654.713 171.666 655.205 170.037C655.696 168.409 656.607 166.938 657.846 165.773C659.086 164.607 660.61 163.788 662.265 163.397C662.265 155.221 667.116 152.726 674.185 154.112C675.2 152.709 676.533 151.568 678.075 150.78C679.617 149.993 681.324 149.582 683.056 149.582C684.787 149.582 686.494 149.993 688.036 150.78C689.578 151.568 690.911 152.709 691.926 154.112C696.638 151.756 701.074 153.28 702.044 157.438H702.876C703.658 157.937 704.29 158.639 704.705 159.468C705.12 160.298 705.302 161.225 705.232 162.15C706.856 163.104 708.122 164.564 708.835 166.308C710.26 167.342 711.326 168.796 711.885 170.466C712.175 172.123 712.102 173.824 711.671 175.451C711.241 177.078 710.462 178.593 709.39 179.89C710.815 181.058 711.946 182.544 712.692 184.229C713.438 185.914 713.779 187.751 713.686 189.591C713.686 192.779 711.469 196.659 707.865 197.352C710.914 202.757 709.667 208.855 702.876 209.686H700.519C700.519 217.448 696.916 219.388 689.986 216.616C689.363 224.503 689.363 232.427 689.986 240.315C690.308 243.53 691.402 246.62 693.173 249.323C695.062 251.324 697.101 253.177 699.272 254.867L708.142 261.519V262.628L711.746 265.261L710.637 267.478C710.637 267.478 704.123 265.538 700.242 263.875C698.008 262.99 695.871 261.875 693.866 260.549V261.796L696.361 269.419L694.282 270.666L691.094 267.201C689.017 265.651 687.153 263.833 685.55 261.796C685.028 261.33 684.604 260.765 684.303 260.133C681.825 262.822 679.555 265.694 677.511 268.726C674.429 272.244 671.094 275.533 667.532 278.566L665.592 277.18L668.364 272.052L664.622 275.517L661.988 273.438L665.315 267.201L667.809 263.044C664.344 264.429 661.295 265.538 657.137 266.785L656.167 263.321L661.711 259.995L654.088 262.628L652.702 259.579L659.771 255.144C661.706 254.082 663.559 252.878 665.315 251.541C676.957 243.087 675.017 239.068 676.264 226.733C676.475 223.641 676.475 220.539 676.264 217.448C673.076 217.448 669.611 217.448 668.502 214.537C666.146 214.26 664.622 211.904 664.899 207.885Z" fill="#12100B"/>
<path fill-rule="evenodd" clip-rule="evenodd" d="M670.302 264.707C672.659 262.351 678.618 252.788 681.39 252.234C684.162 251.679 686.519 256.946 688.459 259.025V257.777C688.459 254.312 690.815 253.342 693.449 255.144C695.191 256.303 697.049 257.278 698.993 258.054C698.993 258.054 696.775 256.391 694.419 254.312C684.578 245.027 685.687 240.453 684.717 228.258C684.717 221.744 684.717 208.855 684.717 208.855C693.171 213.29 696.221 213.844 694.835 203.311C696.775 203.311 702.319 204.143 703.428 201.925C705.923 197.075 700.656 192.64 698.023 189.73L703.982 191.254C708.695 191.254 710.358 182.8 703.982 178.227L702.596 177.118C704.675 174.762 707.447 171.436 706.477 167.971C705.507 164.506 701.488 163.952 698.716 163.675C698.716 162.012 700.656 157.854 698.716 156.607C696.775 155.359 692.756 157.577 690.815 158.963L690.122 156.191C687.905 151.202 679.589 152.172 677.094 156.191V157.3C675.015 157.3 670.164 155.636 668.5 157.3C666.837 158.963 666.976 163.398 668.5 166.308C665.313 166.308 661.709 165.615 660.6 170.188C659.491 174.762 661.57 176.702 665.728 178.504C657.274 184.186 654.779 186.958 665.728 192.363C659.769 200.262 663.927 202.064 671.827 201.094C671.134 203.311 669.332 208.855 670.995 210.795C672.658 212.735 680.42 209.132 682.499 208.023C684.578 206.915 682.499 220.774 682.499 227.01C681.252 239.622 682.499 244.473 671.411 253.342C673.074 252.511 677.232 250.155 679.034 251.818C680.836 253.481 675.431 260.133 674.045 262.905L670.302 264.707Z" fill="#008251"/>
<path fill-rule="evenodd" clip-rule="evenodd" d="M645.769 95.4882L604.189 135.956H685.963L645.769 95.4882ZM571.063 106.021L605.99 70.6806L571.063 35.063V106.021ZM716.871 39.2207L682.637 72.7594L716.871 106.16V39.2207ZM686.24 4.98901H601.139L643.69 47.6747L686.24 4.98901Z" fill="white"/>
<path fill-rule="evenodd" clip-rule="evenodd" d="M829.139 430.876H789.083V451.249C789.157 451.847 789.157 452.452 789.083 453.05C788.652 454.708 787.711 456.188 786.393 457.283C785.075 458.377 783.446 459.029 781.737 459.148H521.306V478.967C521.306 481.025 520.488 482.999 519.032 484.455C517.577 485.91 515.603 486.728 513.544 486.728H481.25V482.154H473.211V419.373H502.872V400.802C502.958 398.348 503.888 395.998 505.505 394.15C507.062 392.677 509.057 391.752 511.188 391.516H770.233V372.53C770.266 370.478 770.977 368.495 772.256 366.89C773.535 365.286 775.309 364.15 777.302 363.66H833.99C836.033 363.782 837.977 364.585 839.51 365.942C841.043 367.299 842.076 369.13 842.445 371.144C844.043 371.643 845.44 372.637 846.437 373.982C847.433 375.327 847.977 376.954 847.989 378.628V391.655H1102.18C1104.3 391.953 1106.27 392.869 1107.87 394.288C1109.15 395.629 1110.02 397.314 1110.36 399.139C1111.57 399.603 1112.69 400.258 1113.69 401.079C1115.03 402.567 1115.82 404.479 1115.9 406.484V419.512H1140.16V426.718H1145.57V487.005H1112.58H1110.64C1109.49 486.693 1108.42 486.135 1107.51 485.369C1106.61 484.603 1105.87 483.648 1105.37 482.57H1103.71C1101.74 482.071 1100 480.924 1098.77 479.315C1097.54 477.705 1096.89 475.727 1096.92 473.7V459.841H844.801C843.32 459.785 841.885 459.313 840.659 458.48C839.434 457.647 838.468 456.485 837.871 455.129C835.529 454.989 833.327 453.968 831.707 452.272C830.087 450.575 829.17 448.328 829.139 445.982V430.876Z" fill="#12100B"/>
<path fill-rule="evenodd" clip-rule="evenodd" d="M778.551 445.567L770.235 426.303V396.506H511.189C510.232 396.645 509.325 397.027 508.556 397.614C507.807 398.405 507.365 399.437 507.309 400.525V449.447H774.67C775.689 449.412 776.656 448.993 777.376 448.272C778.097 447.552 778.517 446.585 778.551 445.567ZM1111.19 424.362V454.575L1102.6 473.562C1102.73 474.542 1103.21 475.444 1103.95 476.104C1104.68 476.765 1105.63 477.141 1106.62 477.165H1135.87V424.362H1111.19ZM1104.96 454.575H1102.6V460.396L1104.96 454.575ZM508.972 454.575L511.328 460.534V454.575H508.972ZM511.328 473.7L503.566 454.575H502.735V424.362H477.648V477.165H507.863C508.686 476.963 509.425 476.505 509.972 475.858C510.52 475.211 510.849 474.407 510.912 473.562L511.328 473.7ZM778.828 368.649C777.946 368.906 777.165 369.431 776.594 370.151C776.023 370.871 775.69 371.751 775.641 372.668V421.313H838.011V372.668C838.073 372.301 838.073 371.927 838.011 371.56C837.848 370.691 837.382 369.909 836.697 369.351C836.012 368.793 835.152 368.495 834.269 368.511H778.828V368.649ZM834.269 445.151C834.172 445.608 834.172 446.08 834.269 446.537C834.463 447.329 834.88 448.049 835.469 448.614C836.058 449.178 836.795 449.564 837.595 449.724H1104.96V400.525C1104.88 399.509 1104.49 398.542 1103.85 397.753C1103.11 397.091 1102.19 396.658 1101.21 396.506H842.585V426.303L834.269 445.151ZM836.625 426.441H834.269V432.123L836.625 426.441ZM776.611 426.441H778.828V432.123L776.611 426.441Z" fill="white"/>
<path fill-rule="evenodd" clip-rule="evenodd" d="M556.096 437.805C557.06 437.797 557.991 437.454 558.73 436.835C560.032 435.54 561.236 434.15 562.333 432.678L568.986 423.946L564.412 416.74C563.117 414.702 561.681 412.757 560.116 410.919C559.159 410.175 557.999 409.74 556.789 409.672V408.84H569.679V409.672H567.184C566.929 409.761 566.71 409.931 566.56 410.156C566.41 410.381 566.337 410.649 566.353 410.919C566.244 411.421 566.244 411.941 566.353 412.443C566.379 412.766 566.379 413.091 566.353 413.414L570.788 420.204L575.777 413.968C576.319 413.332 576.784 412.634 577.163 411.889C577.209 411.567 577.209 411.241 577.163 410.919C577.148 410.637 577.047 410.366 576.874 410.143C576.7 409.921 576.463 409.756 576.193 409.672H574.114V408.84H584.232V409.672H581.599C580.196 410.708 578.978 411.973 577.995 413.414L571.758 421.59L579.935 433.925C580.458 434.885 581.164 435.733 582.015 436.419C582.815 436.899 583.717 437.184 584.648 437.251V438.083H572.035V437.112C572.858 437.284 573.707 437.284 574.53 437.112C574.627 436.944 574.679 436.753 574.679 436.558C574.679 436.363 574.627 436.172 574.53 436.004C574.399 435.152 574.066 434.345 573.56 433.648C573.56 432.678 571.204 429.767 568.293 425.332L563.165 431.985L561.64 434.202C561.52 434.75 561.52 435.317 561.64 435.865C561.638 436.173 561.75 436.471 561.955 436.702C562.16 436.932 562.443 437.078 562.749 437.112C563.482 437.245 564.233 437.245 564.967 437.112V437.944H556.096V437.805ZM610.705 408.84V409.672C609.563 409.62 608.437 409.963 607.517 410.642C607.189 411.632 607.189 412.701 607.517 413.691V427.55C607.414 429.447 607.746 431.344 608.487 433.093C609.075 434.287 610.014 435.273 611.179 435.917C612.344 436.561 613.678 436.833 615.002 436.697C616.4 436.85 617.812 436.574 619.05 435.906C620.288 435.237 621.293 434.208 621.932 432.955C622.714 430.925 623.046 428.75 622.902 426.58V415.77C623.108 414.196 622.817 412.597 622.07 411.196C621.653 410.781 621.154 410.456 620.606 410.241C620.058 410.027 619.471 409.927 618.882 409.949V408.84H628.862V409.672C627.624 409.728 626.447 410.219 625.535 411.058C625.171 412.513 625.171 414.037 625.535 415.492V427.134C625.684 429.659 625.208 432.182 624.149 434.479C623.199 436.089 621.804 437.39 620.132 438.226C618.46 439.062 616.582 439.397 614.724 439.191C612.865 439.415 610.98 439.088 609.304 438.25C607.629 437.413 606.236 436.101 605.3 434.479C604.293 432.411 603.816 430.125 603.913 427.827V413.968C604.241 412.978 604.241 411.909 603.913 410.919C602.993 410.24 601.868 409.897 600.726 409.949V408.84H610.705ZM629.416 437.805C631.079 437.805 632.327 437.805 632.743 436.558C633.456 435.146 633.745 433.557 633.574 431.985V413.691C633.649 413.153 633.614 412.605 633.471 412.081C633.328 411.557 633.08 411.067 632.743 410.642C632.743 410.642 631.218 409.81 629.416 409.672V408.84H637.871L647.573 431.569L656.998 408.84H665.452V409.672C664.352 409.617 663.27 409.962 662.403 410.642C661.842 411.554 661.598 412.626 661.71 413.691V433.786C661.598 434.851 661.842 435.923 662.403 436.835C663.27 437.515 664.352 437.86 665.452 437.805V438.637H653.533V437.805C655.196 437.805 656.305 437.805 656.721 436.835C657.045 435.656 657.045 434.411 656.721 433.232V412.998L645.91 438.637L635.099 414.107V431.985C634.894 433.664 635.235 435.364 636.069 436.835C636.978 437.431 638.032 437.766 639.118 437.805V438.637H629.139L629.416 437.805ZM684.857 435.727C685.658 435.123 686.286 434.317 686.676 433.392C687.065 432.467 687.203 431.456 687.074 430.46C687.181 429.442 686.989 428.415 686.521 427.504C686.054 426.593 685.331 425.839 684.441 425.332C682.426 424.314 680.181 423.836 677.927 423.946H675.848V435.172C675.831 435.463 675.885 435.754 676.006 436.02C676.127 436.285 676.31 436.518 676.541 436.697C679.346 437.238 682.251 436.899 684.857 435.727ZM667.393 437.805C668.558 437.852 669.713 437.563 670.719 436.974C670.719 436.974 671.551 435.449 671.551 433.786V413.691C671.679 412.562 671.383 411.426 670.719 410.503C669.713 409.914 668.558 409.625 667.393 409.672V408.84H679.451C682.247 408.677 685.032 409.301 687.49 410.642C688.524 411.23 689.364 412.107 689.906 413.166C690.447 414.225 690.668 415.419 690.539 416.601C690.588 417.515 690.427 418.428 690.066 419.269C689.705 420.11 689.156 420.857 688.46 421.452C687.358 422.167 686.138 422.683 684.857 422.976C686.672 423.461 688.369 424.31 689.846 425.471C690.542 426.066 691.091 426.812 691.452 427.654C691.813 428.495 691.975 429.408 691.925 430.322C692.03 431.853 691.643 433.378 690.82 434.675C689.997 435.971 688.782 436.971 687.351 437.528C685.459 438.293 683.432 438.67 681.392 438.637H667.531L667.393 437.805ZM683.471 421.452C684.353 421.036 685.089 420.364 685.584 419.523C686.078 418.683 686.308 417.713 686.243 416.74C686.34 415.619 686.085 414.496 685.513 413.527C684.942 412.558 684.083 411.792 683.055 411.335C681.379 410.685 679.583 410.402 677.788 410.503H676.125C675.977 410.953 675.977 411.439 676.125 411.889V422.006H680.283C681.417 422.043 682.548 421.854 683.609 421.452H683.471ZM710.221 422.283C711.204 421.747 712.025 420.955 712.596 419.992C713.168 419.029 713.47 417.929 713.47 416.809C713.47 415.689 713.168 414.589 712.596 413.626C712.025 412.663 711.204 411.871 710.221 411.335C708.861 410.777 707.39 410.54 705.924 410.642C704.677 410.642 703.845 410.642 703.706 410.642C703.568 410.642 703.706 410.642 703.706 411.889V422.976C705.947 423.108 708.194 422.874 710.359 422.283H710.221ZM695.668 437.805C696.761 437.815 697.83 437.476 698.717 436.835C699.028 435.654 699.028 434.413 698.717 433.232V413.691C698.717 412.166 698.717 411.196 698.024 410.642C697.179 410.021 696.161 409.681 695.113 409.672V408.84H706.894C709.012 408.826 711.118 409.153 713.131 409.81C714.54 410.316 715.746 411.265 716.571 412.514C717.395 413.763 717.793 415.246 717.705 416.74C717.777 417.697 717.626 418.657 717.265 419.547C716.905 420.436 716.344 421.23 715.626 421.868C714.043 423.169 712.118 423.987 710.082 424.224L718.814 435.727L720.477 437.251H722.556V438.083H716.873L706.756 424.224H704.399V433.093C704.399 434.756 704.399 435.727 704.399 436.281C705.317 436.841 706.374 437.129 707.449 437.112V437.944H695.668V437.805ZM741.406 427.134L736.416 414.661L731.565 427.134H741.406ZM722.972 438.637V437.805C723.465 437.774 723.944 437.633 724.376 437.394C724.807 437.154 725.18 436.821 725.467 436.419C726.598 434.536 727.527 432.539 728.239 430.46L737.248 408.424H738.079L748.613 433.786C748.973 434.94 749.536 436.019 750.276 436.974C750.933 437.435 751.696 437.722 752.494 437.805V438.637H741.822V437.805H744.178C744.178 437.805 744.178 437.805 744.178 436.558C744.211 436.189 744.211 435.818 744.178 435.449C744.238 434.85 744.238 434.247 744.178 433.648L742.099 429.629H730.734L728.655 435.034C728.601 435.54 728.601 436.051 728.655 436.558C728.622 436.867 728.684 437.178 728.832 437.45C728.981 437.723 729.209 437.943 729.486 438.083H731.565V438.914L722.972 438.637ZM782.986 408.563C784.236 408.575 785.471 408.29 786.59 407.731C786.59 407.731 787.421 406.207 787.421 404.405V384.448C787.421 382.785 787.421 381.677 786.59 381.261C785.471 380.702 784.236 380.417 782.986 380.429V379.598H796.846V380.429C795.638 380.393 794.442 380.68 793.381 381.261C793.381 381.261 792.55 382.785 792.55 384.448V404.405C792.55 406.253 792.827 407.362 793.381 407.731C794.442 408.312 795.638 408.599 796.846 408.563V409.394H782.986V408.563ZM797.817 408.563C799.074 408.523 800.287 408.087 801.282 407.316C801.995 405.904 802.284 404.315 802.113 402.742V382.924V382.231C801.629 381.599 801.014 381.079 800.311 380.706H798.371V379.875H805.994L822.903 401.911V386.25C822.903 383.755 822.903 382.092 821.795 381.399C820.686 380.706 820.27 380.568 818.607 380.429V379.598H829.14V380.429C827.875 380.427 826.649 380.868 825.675 381.677C824.962 383.088 824.673 384.677 824.844 386.25V409.81L804.192 385.28V402.742C804.007 404.394 804.399 406.058 805.301 407.454C806.235 408.123 807.342 408.508 808.489 408.563V409.394H797.955L797.817 408.563ZM894.837 428.936C895.426 430.693 896.318 432.335 897.471 433.786C898.273 434.778 899.287 435.579 900.438 436.13C901.589 436.682 902.848 436.97 904.124 436.974C905.489 436.934 906.804 436.447 907.866 435.588C908.371 435.079 908.766 434.472 909.029 433.805C909.291 433.138 909.414 432.424 909.391 431.707C909.371 430.313 908.827 428.977 907.866 427.966C906.491 426.766 905.006 425.698 903.431 424.778L899.688 422.422C898.63 421.868 897.689 421.115 896.916 420.204C896.279 419.6 895.777 418.868 895.443 418.056C895.109 417.244 894.949 416.37 894.976 415.492C894.943 414.445 895.122 413.401 895.503 412.424C895.884 411.448 896.459 410.559 897.194 409.81C898.816 408.324 900.954 407.528 903.153 407.593C904.442 407.632 905.712 407.914 906.896 408.424L909.391 409.117C909.391 409.117 910.361 409.117 910.499 409.117C910.6 408.755 910.6 408.371 910.499 408.009H910.915L912.024 417.571H910.915C910.519 415.198 909.23 413.065 907.311 411.612C905.997 410.484 904.331 409.847 902.599 409.81C901.401 409.82 900.237 410.208 899.273 410.919C898.854 411.305 898.525 411.778 898.309 412.305C898.094 412.831 897.997 413.399 898.025 413.968C897.966 415.026 898.313 416.067 898.995 416.878C899.931 417.955 901.059 418.848 902.322 419.512L906.203 422.006C908.178 423.089 909.958 424.495 911.47 426.164C912.488 427.468 913.026 429.083 912.994 430.737C913.005 431.854 912.761 432.959 912.281 433.968C911.801 434.977 911.096 435.863 910.222 436.558C909.315 437.407 908.246 438.065 907.079 438.494C905.913 438.922 904.672 439.112 903.431 439.053C901.96 439.034 900.505 438.752 899.134 438.221L897.055 436.974C896.886 436.877 896.695 436.825 896.501 436.825C896.306 436.825 896.115 436.877 895.946 436.974C895.864 437.292 895.864 437.626 895.946 437.944H894.976L893.59 428.381L894.837 428.936ZM928.795 433.648C929.593 434.736 930.636 435.621 931.84 436.231C933.044 436.842 934.375 437.159 935.725 437.159C937.075 437.159 938.405 436.842 939.609 436.231C940.813 435.621 941.857 434.736 942.655 433.648C944.858 430.6 945.891 426.861 945.565 423.115C945.888 419.325 944.857 415.544 942.655 412.443C941.818 411.455 940.779 410.659 939.607 410.109C938.435 409.559 937.158 409.268 935.863 409.256C934.537 409.25 933.229 409.561 932.047 410.164C930.866 410.767 929.846 411.643 929.072 412.721C927.002 415.774 926.025 419.437 926.3 423.115C925.84 426.758 926.569 430.452 928.379 433.648H928.795ZM924.775 411.612C927.544 409.04 931.183 407.611 934.962 407.611C938.742 407.611 942.381 409.04 945.15 411.612C946.688 413.092 947.893 414.884 948.682 416.868C949.47 418.852 949.826 420.982 949.723 423.115C949.801 425.278 949.422 427.432 948.609 429.438C947.797 431.444 946.571 433.257 945.011 434.756C943.672 436.05 942.085 437.06 940.347 437.726C938.609 438.393 936.754 438.703 934.893 438.637C932.956 438.687 931.031 438.331 929.24 437.591C927.45 436.851 925.834 435.743 924.498 434.341C921.644 431.244 920.06 427.187 920.06 422.976C920.06 418.765 921.644 414.708 924.498 411.612H924.775ZM954.575 437.112C955.692 437.119 956.791 436.833 957.762 436.281C958.101 435.245 958.101 434.129 957.762 433.093V413.136C958.083 412.098 958.083 410.987 957.762 409.949C956.791 409.397 955.692 409.11 954.575 409.117V408.286H967.187V409.117C966.014 408.98 964.831 409.276 963.861 409.949C963.861 409.949 963.029 411.335 963.029 412.859V434.479C962.951 434.845 962.951 435.223 963.029 435.588C963.029 435.588 963.029 435.588 964.138 435.588H967.326C970.053 435.769 972.788 435.392 975.365 434.479C977.511 433.497 979.233 431.775 980.216 429.629H981.325L979.107 437.39H954.852L954.575 437.112ZM984.651 437.112C985.771 437.14 986.875 436.852 987.839 436.281C987.839 436.281 988.67 434.756 988.67 433.093V413.136C988.991 412.098 988.991 410.987 988.67 409.949C987.647 409.403 986.504 409.117 985.344 409.117V408.286H1009.18V414.661H1007.94C1007.74 413.24 1007.17 411.899 1006.27 410.78C1004.67 410.055 1002.9 409.768 1001.14 409.949H995.046C994.638 409.837 994.207 409.837 993.799 409.949C993.713 410.36 993.713 410.785 993.799 411.196V421.175H1000.73C1001.99 421.33 1003.27 421.035 1004.33 420.343C1005.08 419.336 1005.51 418.131 1005.58 416.878H1006.69V427.273H1005.58C1005.48 426.026 1005.05 424.829 1004.33 423.808C1003.27 423.116 1001.99 422.821 1000.73 422.976H994.076V434.202C994.076 435.034 994.076 435.588 994.907 435.727C996.567 435.873 998.237 435.873 999.897 435.727C1002.21 435.843 1004.53 435.465 1006.69 434.618C1008.52 433.575 1009.9 431.898 1010.57 429.906H1011.82L1009.74 437.39H984.928L984.651 437.112ZM1014.87 437.112C1016.67 437.112 1017.92 437.112 1018.33 435.865C1019.07 434.511 1019.36 432.959 1019.16 431.43V413.136C1019.48 412.098 1019.48 410.987 1019.16 409.949C1018.12 409.325 1016.91 409.035 1015.7 409.117V408.286H1024.57L1034.96 430.876L1044.8 408.286H1053.81V409.117C1052.69 409.089 1051.59 409.378 1050.63 409.949C1049.95 410.865 1049.65 412.007 1049.79 413.136V433.093C1049.79 434.756 1049.79 435.865 1050.63 436.281C1051.59 436.852 1052.69 437.14 1053.81 437.112V437.944H1041.2V437.112C1043 437.112 1044.11 437.112 1044.53 436.142C1044.94 435.172 1044.53 434.479 1044.53 432.539V412.443L1033.02 437.944L1021.8 413.414V431.43C1021.61 433.082 1022 434.746 1022.9 436.142C1023.82 436.821 1024.95 437.164 1026.09 437.112V437.944H1015.56L1014.87 437.112ZM529.762 437.805C530.839 437.847 531.904 437.557 532.811 436.974C532.811 436.974 533.643 435.449 533.643 433.786V413.691C533.97 412.701 533.97 411.632 533.643 410.642C532.723 409.963 531.597 409.62 530.455 409.672V408.84H553.185V415.77H552.077C552.052 414.335 551.511 412.957 550.552 411.889C549.037 411.187 547.363 410.9 545.701 411.058H539.88C539.187 411.058 538.91 411.058 538.632 411.058C538.598 411.473 538.598 411.89 538.632 412.305V422.283H545.147C546.408 422.438 547.684 422.144 548.75 421.452C549.352 420.384 549.729 419.205 549.859 417.987H550.552V428.381H549.582C549.516 427.129 549.082 425.924 548.334 424.917C548.334 424.917 546.671 424.085 544.869 424.085H538.355V435.172C538.355 436.004 538.355 436.558 539.187 436.697C540.75 436.918 542.336 436.918 543.899 436.697C546.115 436.839 548.335 436.508 550.413 435.727C552.107 434.542 553.372 432.84 554.017 430.876H555.265L553.324 438.498H530.039L529.762 437.805Z" fill="#12100B"/>
<path fill-rule="evenodd" clip-rule="evenodd" d="M1570.63 600.635L1585.74 636.392H1555.66L1570.63 600.635ZM1575.34 581.787H1572.71L1546.23 644.984C1540.83 657.734 1537.5 667.159 1529.46 667.851V670.346H1555.24V667.851C1550.81 667.851 1546.37 666.743 1546.37 662.308C1547.94 655.358 1550.31 648.614 1553.44 642.212H1587.54L1592.25 653.299C1597.1 664.802 1597.24 667.158 1586.29 667.158V669.653H1619.42V667.158C1612.21 667.158 1609.44 659.675 1607.08 654.408L1575.34 581.787ZM1513.53 581.787H1510.89C1506.46 592.32 1500.08 581.787 1482.2 581.787C1476.25 581.611 1470.32 582.663 1464.79 584.878C1459.25 587.093 1454.24 590.424 1450.05 594.663C1445.86 598.902 1442.59 603.958 1440.45 609.516C1438.3 615.074 1437.32 621.015 1437.57 626.967C1437.21 632.953 1438.12 638.949 1440.25 644.555C1442.38 650.161 1445.67 655.251 1449.92 659.485C1454.17 663.719 1459.27 667 1464.88 669.112C1470.49 671.224 1476.49 672.117 1482.48 671.732C1488.96 671.582 1495.33 670.045 1501.16 667.224C1507 664.403 1512.16 660.363 1516.3 655.378L1514.08 652.884C1510.23 657.113 1505.51 660.465 1500.25 662.713C1494.99 664.961 1489.31 666.051 1483.59 665.911C1462.24 665.911 1452.68 646.231 1452.68 627.938C1452.68 604.516 1461.97 587.192 1483.45 587.192C1490.17 587.306 1496.63 589.788 1501.7 594.199C1506.77 598.61 1510.13 604.668 1511.17 611.307H1514.36L1513.53 581.787ZM1411.1 593.983C1411.1 590.103 1413.04 585.945 1423.85 585.945V583.45H1385.04V585.945C1395.85 585.945 1397.79 590.103 1397.79 593.983V659.397C1397.79 663.139 1395.85 667.297 1385.04 667.297V669.792H1423.85V667.297C1413.04 667.297 1411.1 663.139 1411.1 659.397V593.983ZM1361.2 593.983C1361.2 590.103 1363.14 585.945 1373.82 585.945V583.45H1342.77V585.945C1353.44 585.945 1355.38 590.103 1355.38 593.983V646.37L1305.21 583.589H1283.03V586.083C1285.31 585.896 1287.61 586.356 1289.64 587.41C1291.67 588.463 1293.37 590.069 1294.54 592.043L1295.64 593.29V659.536C1295.64 663.278 1293.7 667.436 1283.03 667.436V669.93H1313.94V667.436C1303.27 667.436 1301.33 663.278 1301.33 659.536V599.942L1359.26 671.732H1361.2V593.983ZM1267.51 581.787H1264.74C1260.44 592.32 1253.92 581.787 1236.05 581.787C1230.1 581.609 1224.17 582.662 1218.65 584.878C1213.12 587.095 1208.12 590.429 1203.94 594.67C1199.76 598.911 1196.51 603.969 1194.38 609.526C1192.25 615.084 1191.28 621.021 1191.55 626.967C1191.07 632.968 1191.9 639.002 1193.98 644.651C1196.06 650.3 1199.34 655.43 1203.6 659.687C1207.86 663.944 1212.99 667.225 1218.64 669.305C1224.29 671.385 1230.32 672.213 1236.32 671.732C1242.82 671.566 1249.2 670.022 1255.06 667.203C1260.91 664.384 1266.1 660.353 1270.28 655.378L1268.06 652.884C1264.21 657.113 1259.49 660.465 1254.23 662.713C1248.97 664.961 1243.29 666.051 1237.57 665.911C1216.23 665.911 1206.66 646.231 1206.66 627.938C1206.66 604.516 1215.95 587.192 1237.43 587.192C1244.15 587.306 1250.62 589.788 1255.69 594.199C1260.76 598.61 1264.11 604.668 1265.15 611.307H1268.2L1267.51 581.787ZM1172.29 669.93L1178.25 647.894H1174.51C1172.79 653.624 1169 658.506 1163.87 661.583C1158.74 664.66 1152.65 665.709 1146.79 664.525H1130.15C1127.52 664.525 1126.69 661.892 1126.69 659.536V627.383H1145.54C1154.27 627.383 1161.62 629.878 1161.62 639.995H1164.39V609.644H1161.62C1161.62 619.761 1154.27 622.117 1145.54 622.117H1126.69V594.399C1126.68 593.663 1126.83 592.934 1127.13 592.262C1127.43 591.59 1127.88 590.99 1128.43 590.504C1128.98 590.018 1129.63 589.656 1130.33 589.443C1131.04 589.23 1131.78 589.172 1132.51 589.271H1153.44C1157.23 589.195 1160.9 590.6 1163.67 593.188C1166.44 595.777 1168.09 599.344 1168.27 603.13H1171.18V583.589H1101.88V586.083C1111.44 586.083 1113.38 590.241 1113.38 594.122V659.536C1113.38 663.278 1111.44 667.436 1101.88 667.436V669.93H1172.29ZM1071.39 667.436C1061.96 667.436 1059.88 663.278 1059.88 659.536V589.548H1069.31C1079.01 589.548 1084.97 589.548 1087.88 606.179H1090.93V584.005H1016.36L1015.67 606.179H1018.72C1021.63 589.548 1027.59 589.548 1037.29 589.548H1046.72V659.952C1046.72 663.694 1044.64 667.851 1035.21 667.851V670.346H1071.39V667.436ZM888.988 595.092C888.988 588.855 890.097 588.439 896.334 588.439C901.72 587.686 907.207 588.142 912.395 589.776C917.582 591.409 922.34 594.178 926.323 597.882C930.306 601.586 933.413 606.13 935.418 611.186C937.423 616.241 938.276 621.68 937.914 627.106C937.914 651.359 922.529 665.773 896.334 664.525C895.492 664.567 894.651 664.429 893.866 664.121C893.081 663.814 892.371 663.343 891.781 662.74C891.192 662.138 890.737 661.417 890.447 660.626C890.156 659.835 890.037 658.991 890.097 658.15L888.988 595.092ZM898.829 669.93C933.756 669.93 951.359 653.438 951.359 627.106C951.359 597.725 931.123 583.589 897.858 583.589H864.178V586.083C873.742 586.083 875.682 590.241 875.682 594.122V659.536C875.682 663.278 873.742 667.436 864.178 667.436V669.93H898.829ZM803.471 600.635L818.579 636.392H788.364L803.471 600.635ZM808.045 581.787H805.55L779.077 644.984C773.672 657.734 770.345 667.159 762.168 667.851V670.346H788.086V667.851C783.651 667.851 779.216 666.743 779.216 662.308C780.784 655.358 783.156 648.614 786.285 642.212H820.38L825.093 653.299C829.944 664.802 830.083 667.158 818.994 667.158V669.653H852.259V667.158C844.913 667.158 842.279 659.675 839.923 654.408L808.045 581.787ZM691.481 595.646C691.481 589.41 692.729 588.994 698.966 588.994C704.288 588.374 709.682 588.931 714.766 590.625C719.849 592.319 724.499 595.108 728.385 598.796C732.272 602.485 735.301 606.981 737.259 611.969C739.217 616.957 740.055 622.313 739.715 627.66C739.715 651.914 724.33 666.327 698.134 665.08C697.292 665.121 696.451 664.983 695.666 664.676C694.882 664.368 694.171 663.897 693.582 663.295C692.992 662.692 692.537 661.972 692.247 661.18C691.957 660.389 691.837 659.545 691.897 658.705L691.481 595.646ZM702.015 669.93C736.943 669.93 754.545 653.438 754.545 627.106C754.545 597.725 734.309 583.589 700.906 583.589H666.81V586.083C676.235 586.083 678.314 590.241 678.314 594.122V659.536C678.314 663.278 676.235 667.436 666.81 667.436V669.93H702.015ZM642.555 594.122C642.555 590.241 644.496 586.083 655.306 586.083V583.589H616.498V586.083C627.309 586.083 629.249 590.241 629.249 594.122V659.536C629.249 663.278 627.309 667.436 616.498 667.436V669.93H655.306V667.436C644.496 667.436 642.555 663.278 642.555 659.536V594.122ZM543.871 671.732H546.782C548.029 662.308 557.454 671.732 570.898 671.732C574.301 672.074 577.737 671.722 580.999 670.695C584.261 669.668 587.28 667.989 589.873 665.759C592.465 663.53 594.578 660.796 596.081 657.725C597.585 654.654 598.448 651.31 598.619 647.894C598.619 632.234 586.56 626.69 568.958 616.019C563.275 612.554 555.098 607.288 555.098 599.665C555.041 597.89 555.372 596.125 556.068 594.491C556.765 592.858 557.809 591.396 559.129 590.208C560.449 589.02 562.012 588.135 563.71 587.614C565.408 587.093 567.199 586.949 568.958 587.192C574.858 587.723 580.407 590.228 584.708 594.302C589.008 598.376 591.81 603.781 592.659 609.644H595.847L593.075 581.926H590.302C587.115 591.627 580.878 581.926 567.017 581.926C564.017 581.659 560.995 582.013 558.138 582.967C555.281 583.921 552.652 585.454 550.414 587.47C548.177 589.486 546.38 591.942 545.135 594.684C543.889 597.426 543.223 600.396 543.178 603.407C543.178 628.353 578.799 629.185 584.758 647.34C585.504 649.606 585.687 652.019 585.291 654.371C584.895 656.723 583.932 658.944 582.485 660.84C581.039 662.737 579.152 664.253 576.989 665.257C574.825 666.261 572.449 666.724 570.067 666.604C563.582 666.275 557.377 663.857 552.381 659.71C547.384 655.563 543.864 649.911 542.346 643.598H539.436L543.871 671.732ZM466.393 594.676C466.393 588.578 467.502 588.578 476.095 588.578C487.738 588.578 496.885 593.706 496.885 606.595C496.885 619.484 485.243 624.611 466.393 625.166V594.676ZM452.533 659.536C452.533 663.278 450.592 667.436 441.445 667.436V669.93H477.343V667.436C467.779 667.436 465.839 663.278 465.839 659.536V630.016H473.185L504.093 670.207H525.16V667.713C522.654 667.538 520.222 666.784 518.058 665.509C515.893 664.235 514.054 662.474 512.686 660.368L486.767 628.353C499.103 626.69 510.33 620.315 510.33 606.456C510.33 592.597 497.301 583.589 475.679 583.589H441.306V586.083C450.454 586.083 452.394 590.241 452.394 594.122L452.533 659.536ZM424.813 669.93L430.772 647.894H427.03C425.316 653.624 421.523 658.506 416.394 661.583C411.266 664.66 405.172 665.709 399.31 664.525H383.232C380.599 664.525 379.767 661.892 379.767 659.536V627.383H397.092C405.824 627.383 413.17 629.878 413.17 639.995H415.942V609.644H413.17C413.17 619.761 405.824 622.117 397.092 622.117H379.213V594.399C379.206 593.663 379.358 592.934 379.658 592.262C379.958 591.59 380.399 590.99 380.951 590.504C381.503 590.018 382.154 589.656 382.858 589.443C383.563 589.23 384.305 589.172 385.034 589.271H405.963C409.753 589.195 413.424 590.6 416.193 593.188C418.963 595.777 420.613 599.344 420.793 603.13H423.704V583.589H354.403V586.083C363.828 586.083 365.769 590.241 365.769 594.122V659.536C365.769 663.278 363.828 667.436 354.403 667.436V669.93H424.813ZM300.072 671.732H301.735C308.942 653.022 322.386 618.652 331.95 595.508C334.029 590.241 336.662 586.222 342.761 586.083V583.589H316.288V586.083C320.03 586.083 325.713 586.083 325.713 591.766C325.234 595.499 324.206 599.142 322.664 602.576L304.091 649.003L285.103 606.318C282.556 601.425 280.557 596.265 279.143 590.934C279.143 587.885 280.529 586.083 288.845 586.083V583.589H254.195V586.083C261.818 586.083 265.144 593.429 268.055 601.19L300.072 671.732ZM229.246 594.122C229.246 590.241 231.187 586.083 241.998 586.083V583.589H203.051V586.083C213.862 586.083 215.802 590.241 215.802 594.122V659.536C215.802 663.278 213.862 667.436 203.051 667.436V669.93H241.859V667.436C231.048 667.436 229.108 663.278 229.108 659.536L229.246 594.122ZM179.35 594.122C179.35 590.241 181.29 586.083 191.963 586.083V583.589H161.47V586.083C172.143 586.083 174.083 590.241 174.083 594.122V646.37L123.494 583.589H101.317V586.083C107.693 586.083 108.802 587.469 112.821 592.043L113.93 593.29V659.536C113.93 663.278 111.99 667.436 101.317 667.436V669.93H132.226V667.436C121.553 667.436 119.613 663.278 119.613 659.536V599.942L177.548 671.732H179.489L179.35 594.122ZM11.9197 636.946C11.9197 660.783 21.6218 671.732 45.3226 671.732C51.0273 671.686 56.6713 670.558 61.9547 668.406C76.6465 661.338 78.3097 649.835 78.3097 635.144V593.567C78.3097 589.687 80.2501 585.529 90.5066 585.529V583.034H60.0143V585.529C70.2708 585.529 72.3498 589.687 72.3498 593.567V635.144C72.3498 647.479 72.3498 665.911 47.8174 665.911C31.4625 665.911 25.2254 658.15 25.2254 638.193V594.122C25.2254 590.241 27.1658 586.083 36.7293 586.083V583.589H0.415804V586.083C9.97929 586.083 11.9197 590.241 11.9197 594.122V636.946ZM1570.63 735.483L1585.74 771.378H1555.66L1570.63 735.483ZM1575.34 716.774H1572.71L1546.23 779.555C1540.83 792.167 1537.5 801.729 1529.46 802.422V804.778H1555.24V802.422C1550.81 802.422 1546.37 801.175 1546.37 796.879C1547.94 789.883 1550.31 783.093 1553.44 776.644H1587.54L1592.25 787.732C1597.1 799.373 1597.24 801.591 1586.29 802.422V804.778H1619.42V802.422C1612.21 802.422 1609.44 794.938 1607.08 789.533L1575.34 716.774ZM1508.81 728.97C1508.81 725.228 1510.75 721.07 1521.56 721.07V718.575H1482.76V721.07C1493.57 721.07 1495.51 725.228 1495.51 728.97V794.384C1495.51 798.264 1493.57 802.422 1482.76 802.422V804.778H1521.56V802.422C1510.75 802.422 1508.81 798.264 1508.81 794.384V728.97ZM1415.67 728.97C1415.67 722.872 1416.92 722.872 1425.37 722.872C1437.16 722.872 1446.16 727.861 1446.16 740.888C1446.16 753.916 1434.66 758.766 1415.67 759.459V728.97ZM1401.81 793.691C1401.81 797.572 1399.87 801.729 1390.72 801.729V804.085H1426.62V801.729C1417.06 801.729 1415.12 797.572 1415.12 793.691V765.003H1422.46L1453.51 805.055H1474.44V802.699C1471.95 802.525 1469.54 801.77 1467.4 800.494C1465.26 799.218 1463.44 797.458 1462.1 795.354L1436.6 763.34C1448.8 761.538 1460.16 755.163 1460.16 741.443C1460.16 727.722 1447.14 718.575 1425.51 718.575H1391V721.07C1400.15 721.07 1402.09 725.228 1402.09 728.97L1401.81 793.691ZM1334.59 734.79L1349.7 770.685H1320.18L1334.59 734.79ZM1339.58 716.774H1336.95L1310.47 779.555C1305.21 792.167 1301.74 801.729 1293.7 802.422V804.778H1319.48V802.422C1315.05 802.422 1310.61 801.175 1310.61 796.879C1312.24 789.901 1314.61 783.118 1317.68 776.644H1352.05L1356.77 787.732C1361.76 799.373 1361.9 801.591 1350.81 802.422V804.778H1383.93V802.422C1376.73 802.422 1373.95 794.938 1371.6 789.533L1339.58 716.774ZM1274.16 728.97C1274.16 725.228 1276.1 721.07 1285.53 721.07V718.575H1259.88L1231.06 784.406L1200.98 718.575H1175.2V721.07C1185.59 721.07 1187.54 725.228 1187.54 728.97V794.384C1187.54 798.264 1185.59 802.422 1174.92 802.422V804.778H1205.97V802.422C1195.3 802.422 1193.36 798.264 1193.36 794.384V733.682L1226.07 804.778H1227.87L1261.27 730.771V794.384C1261.27 798.264 1259.19 802.422 1249.77 802.422V804.778H1285.94V802.422C1276.38 802.422 1274.44 798.264 1274.44 794.384L1274.16 728.97ZM1084.14 735.483L1099.25 771.378H1069.45L1084.14 735.483ZM1088.85 716.774H1086.22L1059.74 779.555C1054.48 792.167 1051.01 801.729 1042.97 802.422V804.778H1068.75V802.422C1064.32 802.422 1059.88 801.175 1059.88 796.879C1061.51 789.901 1063.88 783.118 1066.95 776.644H1101.05L1105.76 787.732C1110.75 799.373 1110.89 801.591 1099.8 802.422V804.778H1132.93V802.422C1125.72 802.422 1122.95 794.938 1120.59 789.533L1088.85 716.774ZM1027.73 802.422C1018.16 802.422 1016.22 798.264 1016.22 794.384V724.119H1025.65C1035.21 724.119 1041.17 724.119 1044.08 740.75H1047.27L1046.44 718.575H972.98L972.149 740.75H975.337C978.247 724.119 984.207 724.119 993.771 724.119H1003.2V794.384C1003.2 798.264 1001.26 802.422 991.692 802.422V804.778H1028.01L1027.73 802.422ZM951.497 728.97C951.497 725.228 953.438 721.07 964.11 721.07V718.575H933.756V721.07C944.429 721.07 946.369 725.228 946.369 728.97V781.218L896.057 718.575H873.881V721.07C876.171 720.858 878.475 721.291 880.532 722.32C882.589 723.348 884.318 724.932 885.523 726.891L886.493 728.277V794.384C886.493 798.264 884.553 802.422 873.881 802.422V804.778H904.927V802.422C894.255 802.422 892.176 798.264 892.176 794.384V734.929L950.111 806.718H951.497V728.97ZM817.054 735.483L832.162 771.378H802.639L817.054 735.483ZM821.766 716.774H819.133L792.799 779.555C787.393 792.167 784.067 801.729 775.89 802.422V804.778H801.808V802.422C797.234 802.422 792.937 801.175 792.937 796.879C794.517 789.905 796.84 783.122 799.867 776.644H834.102L838.814 787.732C843.665 799.373 843.804 801.591 832.716 802.422V804.778H865.98V802.422C858.634 802.422 856.001 794.938 853.645 789.533L821.766 716.774ZM707.282 806.718H710.054C711.44 797.156 720.726 806.718 734.309 806.718C737.708 807.041 741.137 806.674 744.39 805.64C747.643 804.605 750.655 802.925 753.243 800.699C755.831 798.473 757.944 795.748 759.453 792.686C760.963 789.624 761.839 786.289 762.029 782.881C762.029 767.22 749.971 761.538 732.23 750.867C726.686 747.541 718.37 742.136 718.37 734.652C718.316 732.872 718.648 731.102 719.344 729.463C720.039 727.824 721.081 726.355 722.398 725.157C723.714 723.958 725.275 723.059 726.972 722.521C728.67 721.983 730.463 721.819 732.23 722.04C738.13 722.571 743.679 725.076 747.98 729.15C752.28 733.224 755.082 738.629 755.931 744.492H759.257L756.347 716.774H753.575C750.525 726.336 744.288 716.774 730.428 716.774C727.472 716.624 724.516 717.075 721.739 718.099C718.962 719.123 716.422 720.7 714.272 722.734C712.121 724.768 710.405 727.216 709.228 729.931C708.05 732.647 707.435 735.573 707.42 738.532C707.42 763.478 742.902 764.171 749.001 782.465C749.746 784.731 749.929 787.144 749.533 789.496C749.137 791.848 748.174 794.069 746.728 795.965C745.281 797.862 743.395 799.378 741.231 800.382C739.067 801.386 736.692 801.849 734.309 801.729C727.921 801.27 721.848 798.774 716.983 794.608C712.119 790.442 708.718 784.826 707.282 778.585H704.233L707.282 806.718ZM613.726 721.486C633.823 721.486 641.446 741.304 641.446 761.677C641.446 775.536 636.734 800.205 613.726 802.006C598.341 803.115 586.006 788.147 586.006 761.677C586.006 735.206 594.876 722.733 614.28 721.486H613.726ZM613.726 716.774C607.87 716.579 602.039 717.624 596.615 719.84C591.191 722.056 586.297 725.393 582.254 729.633C578.21 733.873 575.108 738.919 573.151 744.441C571.194 749.964 570.426 755.837 570.898 761.677C570.577 767.489 571.448 773.306 573.458 778.769C575.467 784.232 578.573 789.227 582.585 793.445C586.596 797.664 591.428 801.018 596.783 803.301C602.139 805.583 607.905 806.746 613.726 806.718C625.223 806.08 636.038 801.064 643.951 792.7C651.864 784.336 656.274 773.259 656.274 761.746C656.274 750.233 651.864 739.156 643.951 730.792C636.038 722.428 625.223 717.412 613.726 716.774ZM556.345 716.774H553.573C549.277 727.306 542.762 716.774 524.883 716.774C518.933 716.578 513.008 717.612 507.477 719.811C501.946 722.011 496.928 725.329 492.739 729.557C488.549 733.785 485.278 738.833 483.13 744.383C480.981 749.934 480.002 755.869 480.253 761.815C479.889 767.807 480.801 773.808 482.929 779.421C485.057 785.034 488.352 790.131 492.597 794.375C496.842 798.62 501.94 801.915 507.553 804.043C513.167 806.171 519.168 807.083 525.16 806.718C531.639 806.569 538.01 805.031 543.844 802.21C549.677 799.389 554.839 795.35 558.979 790.365L556.761 787.732C552.926 791.983 548.213 795.35 542.948 797.6C537.683 799.849 531.992 800.927 526.269 800.759C504.924 800.759 495.499 781.079 495.499 762.924C495.499 739.364 504.647 722.04 526.269 722.04C532.973 722.208 539.409 724.708 544.469 729.11C549.528 733.511 552.895 739.539 553.989 746.155H557.038L556.345 716.774ZM457.384 728.831C457.384 725.089 459.324 720.931 470.135 720.931V718.437H431.327V720.931C442.138 720.931 444.078 725.089 444.078 728.831V794.245C444.078 798.126 442.138 802.284 431.327 802.284V804.64H470.135V802.284C459.324 802.284 457.384 798.126 457.384 794.245V728.831ZM364.244 728.831C364.244 722.733 365.491 722.733 373.946 722.733C385.727 722.733 394.736 727.722 394.736 740.75C394.736 753.777 383.232 758.628 364.244 759.321V728.831ZM350.384 793.552C350.384 797.433 348.443 801.591 339.296 801.591V803.947H376.302V801.591C366.739 801.591 364.798 797.433 364.798 793.552V765.003H372.144L403.191 805.055H424.813V802.699C422.325 802.525 419.913 801.77 417.771 800.494C415.629 799.218 413.815 797.458 412.477 795.354L386.004 763.34C398.201 761.538 409.566 755.163 409.566 741.443C409.566 727.722 396.538 718.575 374.916 718.575H340.405V721.07C349.552 721.07 351.493 725.228 351.493 728.97L350.384 793.552ZM327.792 804.778L333.474 783.574H329.732C328.018 789.304 324.225 794.186 319.096 797.263C313.968 800.34 307.874 801.389 302.012 800.205H285.38C282.746 800.205 281.915 797.433 281.915 795.077V762.37H300.072C308.803 762.37 316.149 764.864 316.149 774.981H318.921V744.492H316.149C316.149 754.747 308.803 756.965 300.072 756.965H281.915V729.247C281.93 728.536 282.093 727.836 282.393 727.191C282.693 726.546 283.124 725.971 283.658 725.502C284.193 725.033 284.819 724.68 285.497 724.466C286.175 724.251 286.89 724.18 287.597 724.258H308.665C312.455 724.181 316.126 725.586 318.895 728.175C321.665 730.763 323.315 734.33 323.495 738.117H326.406V718.575H257.105V721.07C266.669 721.07 268.609 725.228 268.609 728.97V794.384C268.609 798.264 266.669 802.422 257.105 802.422V804.778H327.792ZM185.171 730.078C185.171 723.842 186.419 723.426 192.656 723.426C197.978 722.806 203.372 723.363 208.455 725.057C213.539 726.751 218.188 729.54 222.075 733.229C225.962 736.917 228.991 741.414 230.949 746.401C232.907 751.389 233.745 756.745 233.404 762.093C233.404 786.346 218.02 800.621 191.824 799.512C190.982 799.553 190.141 799.415 189.356 799.108C188.572 798.8 187.861 798.329 187.271 797.727C186.682 797.124 186.227 796.404 185.937 795.612C185.646 794.821 185.527 793.977 185.587 793.137L185.171 730.078ZM195.15 804.778C230.078 804.778 247.68 788.425 247.68 761.954C247.68 732.711 227.445 718.575 194.042 718.575H160.5V721.07C169.925 721.07 171.865 725.228 171.865 728.97V794.384C171.865 798.264 169.925 802.422 160.5 802.422V804.778H195.15ZM146.501 804.778L152.323 783.574H148.719C146.978 789.286 143.179 794.149 138.058 797.221C132.937 800.293 126.859 801.356 120.999 800.205H104.228C101.595 800.205 100.902 797.433 100.902 795.077V762.37H119.89C128.622 762.37 136.106 764.864 136.106 774.981H138.878V744.492H136.106C136.106 754.747 128.622 756.965 119.89 756.965H100.902V729.247C100.883 728.562 101.002 727.88 101.252 727.242C101.501 726.604 101.876 726.022 102.354 725.531C102.832 725.04 103.403 724.65 104.035 724.383C104.666 724.117 105.345 723.98 106.03 723.98H127.513C131.308 723.937 134.975 725.349 137.759 727.927C140.544 730.506 142.234 734.053 142.482 737.839H145.254V718.575H75.9535V721.07C85.5169 721.07 87.4574 725.228 87.4574 728.97V794.384C87.4574 798.264 85.5169 802.422 75.9535 802.422V804.778H146.501ZM36.7293 804.778V802.422C26.8886 802.422 24.9482 798.264 24.9482 794.384V762.37H41.8576C50.5894 762.37 58.0739 764.864 58.0739 774.981H60.8459V744.492H58.0739C58.0739 754.747 50.5894 756.965 41.8576 756.965H24.671V729.247C24.671 726.198 25.7798 724.258 30.3537 724.258H47.5402C56.6879 724.258 64.4496 723.149 66.1128 738.117H69.3006V718.575H0V721.07C9.42488 721.07 11.3653 725.228 11.3653 728.97V794.384C11.3653 798.264 9.42488 802.422 0 802.422V804.778H36.7293Z" fill="black"/>
</svg>
