<svg width="1473" height="758" viewBox="0 0 1473 758" fill="none" xmlns="http://www.w3.org/2000/svg">
<path d="M1174.3 54.7654C1174.3 54.7654 1275.05 636.639 841.287 727.758C461.327 807.577 90.6777 513.608 90.6777 513.608C90.6777 513.608 635.43 727.108 830.101 673.498C1201.04 571.333 1174.34 54.7654 1174.34 54.7654H1174.3Z" fill="#FBC53F"/>
<path d="M670.972 676.567C670.972 676.567 59.7176 563.354 81.0429 403.5C107.24 207.147 1473 0 1473 0C1473 0 19.8092 119.638 0.17978 398.157C-12.702 580.899 670.972 676.567 670.972 676.567Z" fill="#D22028"/>
<path d="M1116.35 625.231V700.284C1116.35 722.739 1124.87 734.147 1139.95 734.147C1155.03 734.147 1163.95 723.317 1163.95 700.284V625.231H1193.35V698.371C1193.35 738.624 1173.04 757.757 1139.01 757.757C1104.98 757.757 1086.8 739.562 1086.8 697.974V625.231H1116.39H1116.35Z" fill="#231F20"/>
<path d="M1219.77 725.267C1227.71 729.31 1239.87 733.389 1252.46 733.389C1265.99 733.389 1273.13 727.794 1273.13 719.274C1273.13 710.754 1266.96 706.494 1251.27 700.898C1229.62 693.353 1215.51 681.368 1215.51 662.415C1215.51 640.177 1234.06 623.137 1264.83 623.137C1279.52 623.137 1290.35 626.242 1298.1 629.708L1291.54 653.498C1286.3 650.971 1277.03 647.325 1264.26 647.325C1251.48 647.325 1245.31 653.137 1245.31 659.888C1245.31 668.191 1252.67 671.873 1269.49 678.263C1292.51 686.783 1303.34 698.769 1303.34 717.144C1303.34 739.021 1286.52 757.577 1250.73 757.577C1235.82 757.577 1221.14 753.714 1213.78 749.635L1219.77 725.267Z" fill="#231F20"/>
<path d="M1433.45 705.736C1432.88 690.068 1432.3 671.115 1432.3 652.162H1431.72C1427.64 668.805 1422.23 687.361 1417.22 702.668L1401.38 753.534H1378.35L1364.43 703.029C1360.17 687.758 1355.73 669.166 1352.63 652.162H1352.23C1351.47 669.78 1350.86 689.888 1349.92 706.133L1347.61 755.664H1320.33L1328.63 625.267H1367.89L1380.66 668.805C1384.7 683.895 1388.78 700.141 1391.67 715.447H1392.25C1395.93 700.357 1400.36 683.137 1404.62 668.625L1418.55 625.303H1457.02L1464.16 755.7H1435.33L1433.38 705.772L1433.45 705.736Z" fill="#231F20"/>
<path d="M322.586 305.666H437.801V340.648H365.381V383.752H433.038V418.445H365.381V494.257H322.586V305.702V305.666Z" fill="#1D1D1B"/>
<path d="M582.063 414.51H512.71V459.275H590.181V494.257H469.951V305.702H586.284V340.684H512.746V379.853H582.099V414.546L582.063 414.51Z" fill="#1D1D1B"/>
<path d="M620.672 450.322C632.147 456.207 649.756 462.055 667.942 462.055C687.499 462.055 697.855 453.932 697.855 441.622C697.855 429.312 688.906 423.174 666.246 415.052C634.925 404.149 614.502 386.785 614.502 359.384C614.502 327.218 641.348 302.597 685.803 302.597C707.056 302.597 722.716 307.074 733.902 312.092L724.412 346.496C716.871 342.85 703.448 337.543 684.973 337.543C666.498 337.543 657.586 345.918 657.586 355.738C657.586 367.76 668.194 373.102 692.551 382.308C725.82 394.619 741.48 411.947 741.48 438.553C741.48 470.178 717.16 497.037 665.416 497.037C643.874 497.037 622.621 491.441 612.012 485.557L620.672 450.322Z" fill="#1D1D1B"/>
<path d="M800.729 494.257L755.986 305.702H801.559L815.812 383.463C819.998 405.846 823.931 430.178 826.998 449.203H827.539C830.607 428.77 835.081 406.135 839.844 382.886L855.793 305.666H901.078L916.16 385.124C920.346 407.218 923.449 427.362 926.228 448.337H926.805C929.62 427.362 933.805 405.268 937.702 382.886L953.074 305.666H996.41L947.77 494.221H901.619L885.67 413.102C882.026 394.077 878.958 376.46 876.721 354.908H876.144C872.788 376.171 869.721 394.077 865.247 413.102L847.349 494.221H800.657L800.729 494.257Z" fill="#1D1D1B"/>
</svg>
